<svg width="60" height="60" fill="none" xmlns="http://www.w3.org/2000/svg"><path d="M30.03 31a1 1 0 01-1-1V15a1 1 0 012 0v15a1 1 0 01-1 1zm18.428 8.375h-4.69a.876.876 0 00-.876.876v6.629h-1a.876.876 0 100 1.751h1v2h-1a.876.876 0 100 1.752h1v1.939a.876.876 0 001.751 0v-1.939h3.815a.876.876 0 000-1.751h-3.815v-2h3.815a4.633 4.633 0 004.628-4.629c0-2.615-2.13-4.628-4.628-4.628zm0 7.505h-3.815v-5.753h3.815a2.874 2.874 0 012.876 2.876 2.88 2.88 0 01-2.876 2.877z" fill="#393186"/><path d="M23.03 38a.999.999 0 01-.707-1.707l7-7a.999.999 0 111.414 1.414l-7 7a.997.997 0 01-.707.293zM30 12a1 1 0 01-1-1V9a1 1 0 012 0v2a1 1 0 01-1 1zm0 40a1 1 0 01-1-1v-2a1 1 0 012 0v2a1 1 0 01-1 1zm21-21h-2a1 1 0 010-2h2a1 1 0 010 2zm-40 0H9a1 1 0 010-2h2a1 1 0 010 2zm32.435-13.435a.999.999 0 01-.707-1.707l1.414-1.414a.999.999 0 111.414 1.414l-1.414 1.414a.997.997 0 01-.707.293zM15.151 45.849a.999.999 0 01-.707-1.707l1.414-1.414a.999.999 0 111.414 1.414l-1.414 1.414a.997.997 0 01-.707.293zm1.414-28.284a.997.997 0 01-.707-.293l-1.414-1.414a.999.999 0 111.414-1.414l1.414 1.414a.999.999 0 01-.707 1.707zM47 60c-7.168 0-13-5.832-13-13s5.832-13 13-13 13 5.832 13 13-5.832 13-13 13zm0-24c-6.065 0-11 4.935-11 11s4.935 11 11 11 11-4.935 11-11-4.935-11-11-11z" fill="#393186"/><path d="M30 60C13.458 60 0 46.542 0 30S13.458 0 30 0s30 13.458 30 30c0 3.715-.679 7.354-2.018 10.815a1 1 0 01-1.77.186 10.972 10.972 0 00-9.212-5c-6.065 0-11 4.935-11 11a10.97 10.97 0 005.001 9.212 1.001 1.001 0 01-.186 1.77A29.879 29.879 0 0130 60zm0-58C14.561 2 2 14.561 2 30s12.561 28 28 28c2.858 0 5.667-.43 8.375-1.281A12.95 12.95 0 0134 47c0-7.168 5.832-13 13-13 3.756 0 7.269 1.606 9.719 4.375A27.859 27.859 0 0058 30C58 14.561 45.439 2 30 2z" fill="#393186"/><path d="M30 56C15.664 56 4 44.336 4 30S15.664 4 30 4s26 11.664 26 26c0 2.545-.373 5.071-1.109 7.506a1 1 0 01-1.536.526A10.926 10.926 0 0047 36c-6.065 0-11 4.935-11 11 0 2.285.703 4.482 2.032 6.354a1 1 0 01-.526 1.536A25.893 25.893 0 0130 56zm0-50C16.766 6 6 16.767 6 30s10.766 24 24 24c1.907 0 3.801-.227 5.65-.676A12.88 12.88 0 0134 47c0-7.168 5.832-13 13-13 2.232 0 4.393.567 6.324 1.649.449-1.848.676-3.742.676-5.649C54 16.767 43.234 6 30 6z" fill="#393186"/></svg>