<svg width="24" height="21" fill="none" xmlns="http://www.w3.org/2000/svg"><path d="M20.484 10.87h-2.349c-.32 0-.63.043-.924.124a3.519 3.519 0 00-3.135-1.928H9.924a3.519 3.519 0 00-3.135 1.928 3.504 3.504 0 00-.924-.124h-2.35A3.52 3.52 0 000 14.385v3.755c0 1.163.946 2.11 2.11 2.11h19.78c1.164 0 2.11-.947 2.11-2.11v-3.755a3.52 3.52 0 00-3.516-3.515zM6.408 12.582v6.261H2.109a.704.704 0 01-.703-.703v-3.755c0-1.163.947-2.11 2.11-2.11h2.349c.19 0 .376.027.552.075a3.535 3.535 0 00-.009.232zm9.778 6.261H7.814v-6.261c0-1.163.947-2.11 2.11-2.11h4.152c1.163 0 2.11.947 2.11 2.11v6.261zm6.408-.703a.704.704 0 01-.703.703h-4.299v-6.261a2.96 2.96 0 00-.009-.232c.176-.048.361-.074.552-.074h2.35c1.163 0 2.109.946 2.109 2.109v3.755z" fill="#A3C359"/><path d="M4.69 4.23a3.127 3.127 0 00-3.124 3.124 3.127 3.127 0 003.124 3.123 3.127 3.127 0 003.124-3.123A3.127 3.127 0 004.69 4.23zm0 4.841a1.72 1.72 0 01-1.718-1.717c0-.947.771-1.718 1.718-1.718s1.718.77 1.718 1.718A1.72 1.72 0 014.69 9.07zM12 .35a4.178 4.178 0 00-4.174 4.173A4.178 4.178 0 0012 8.696a4.178 4.178 0 004.174-4.173A4.178 4.178 0 0012 .35zm0 6.94a2.77 2.77 0 01-2.767-2.767A2.77 2.77 0 0112 1.756a2.77 2.77 0 012.767 2.767A2.77 2.77 0 0112 7.29zm7.31-3.06a3.127 3.127 0 00-3.124 3.124 3.127 3.127 0 003.124 3.123 3.127 3.127 0 003.124-3.123A3.127 3.127 0 0019.31 4.23zm0 4.841a1.72 1.72 0 01-1.718-1.717c0-.947.77-1.718 1.718-1.718.947 0 1.718.77 1.718 1.718A1.72 1.72 0 0119.31 9.07z" fill="#A3C359"/></svg>