<svg width="104" height="52" fill="none" xmlns="http://www.w3.org/2000/svg"><path fill-rule="evenodd" clip-rule="evenodd" d="M52 0c28.714 0 52 9.762 52 21.798 0 12.037-23.286 21.799-52 21.799s-52-9.763-52-21.8C0 9.762 23.286 0 52 0zm13.794 15.752l5.265 5.671h6.87l-6.868-5.671h5.504l8.762 5.671h17.008C101.831 10.562 79.485 1.814 52 1.814S2.17 10.561 1.665 21.423H17.56l8.762-5.671h5.504l-6.868 5.671h6.87l5.265-5.671h5.15l-2.769 5.671h3.83l5.464-5.671h5.229l5.503 5.671h3.912l-2.769-5.671h5.15zm5.988 6.451l5.372 5.788H66.62l-2.825-5.788h-3.537l5.615 5.788h-9.765l-3.655-5.788h-7.274l-5.371 5.788h-2.83l5.576-5.788h-3.459l-2.825 5.788H25.734l5.372-5.788h-7.091l-7.008 5.788H7.415l8.941-5.788H1.666C2.209 33.052 24.539 41.783 52 41.783c27.46 0 49.791-8.731 50.334-19.58H86.532l8.94 5.788h-9.59l-7.009-5.788h-7.09zm-19.822-.78l-2.454-3.885-3.605 3.886h6.059z" fill="#393186"/><path d="M7.237 37.134l-1.39.858-.127 1.653-.544-.326-.01-1.735 1.527-.775.544.325zm.964.577l-1.386.858-.13 1.652-.545-.325-.01-1.735 1.527-.776.544.326zm-.979 3.045l2.292-4.113.745.41-.903 1.618 1.457.803.902-1.618.743.41-2.292 4.112-.743-.41 1.002-1.798-1.456-.803-1.003 1.799-.744-.41zm5.842 1.592l.674.462c-.23.26-.481.423-.756.49-.274.067-.564.032-.87-.103-.484-.215-.764-.55-.838-1.007-.057-.364.011-.763.204-1.194.231-.516.533-.867.905-1.052a1.248 1.248 0 011.112-.033c.415.184.673.482.776.894.102.412.007.931-.286 1.558l-1.847-.818c-.104.246-.13.462-.076.648a.58.58 0 00.334.392.463.463 0 00.337.024c.111-.036.222-.123.331-.261zm.415-.814c.101-.241.128-.446.078-.617a.528.528 0 00-.3-.355.537.537 0 00-.486.02c-.163.084-.295.239-.394.465l1.102.487zm1.27-.947l2.594.938-.25.684-.918-.332-.921 2.517-.758-.274.92-2.517-.917-.332.25-.684zm7.09 5.92l-.884-.27-.038-1.129-1.609-.489-.646.921-.862-.262 2.95-4.02.86.261.23 4.987zm-.95-2.235l-.041-1.837-1.057 1.503 1.099.334zm2.725-.831l2.622.65-.829 3.305-.78-.194.65-2.595-1.066-.264-.372 1.484c-.095.378-.2.633-.317.766-.116.133-.227.211-.334.235-.107.025-.265.012-.475-.04a2.992 2.992 0 01-.48-.18l.162-.643c.017.004.06.016.13.038.08.027.142.045.187.056.105.027.18.005.224-.068.044-.072.11-.285.199-.64l.479-1.91zm3.378.773l.784.18-.315 1.356c.134.014.237-.01.309-.07.07-.061.173-.206.306-.434.177-.304.336-.488.477-.552a.77.77 0 01.501-.03c.06.014.162.043.307.087l-.132.582c-.207-.047-.345-.056-.412-.026-.07.033-.163.155-.283.367-.162.285-.338.444-.525.475.229.134.383.423.461.866.004.024.01.047.016.074l.226 1.016-.845-.194-.169-1.05c-.035-.212-.076-.353-.121-.421-.047-.068-.127-.116-.243-.143l-.328 1.416-.784-.18.77-3.319zm2.224 2.148c.057-.294.178-.566.36-.816a1.46 1.46 0 01.675-.522c.266-.1.546-.121.84-.064a1.44 1.44 0 011.016.708c.225.385.289.828.19 1.33-.098.505-.326.896-.683 1.172a1.434 1.434 0 01-1.201.286 1.616 1.616 0 01-.744-.36 1.378 1.378 0 01-.45-.718c-.077-.293-.079-.631-.003-1.016zm.802.204c-.064.332-.044.6.063.803a.654.654 0 001.041.201c.175-.149.296-.391.361-.727.064-.327.043-.593-.063-.797a.657.657 0 00-1.041-.201c-.176.15-.296.39-.36.721zm2.968-1.126l2.04.286-.103.72-1.239-.173-.375 2.652-.8-.112.477-3.373zm1.957 1.938a2.03 2.03 0 01.303-.84 1.472 1.472 0 011.469-.689 1.44 1.44 0 011.064.636c.252.369.346.806.283 1.313-.063.51-.263.917-.6 1.218-.337.3-.729.422-1.177.368a1.618 1.618 0 01-.768-.307 1.385 1.385 0 01-.5-.686c-.096-.287-.122-.624-.074-1.013zm.815.148c-.041.336-.002.6.12.796a.655.655 0 001.052.129c.164-.16.267-.41.309-.751.04-.33.001-.594-.119-.79a.656.656 0 00-1.053-.128c-.164.16-.267.41-.309.744zm3.178-1.365l2.687.281-.358 3.387-.8-.083.282-2.66-1.094-.114-.16 1.52c-.041.388-.11.655-.207.804-.096.147-.196.24-.298.279-.102.039-.26.047-.476.025a3.002 3.002 0 01-.5-.11l.07-.66c.018.002.062.007.134.02.083.014.147.024.193.03.108.01.18-.022.212-.1.034-.077.07-.297.108-.661l.207-1.958zm3.382.291l.772.067-.188 2.132 1.424-2.024.789.069-.299 3.393-.772-.068.19-2.169-1.443 2.06-.772-.067.299-3.393zm4.208 2.333l.02-.587c.14.005.241-.002.305-.02a.373.373 0 00.184-.141.443.443 0 00.095-.265.48.48 0 00-.095-.3c-.067-.094-.17-.142-.31-.147a.542.542 0 00-.289.066c-.086.049-.166.168-.242.358l-.678-.187c.08-.297.235-.516.465-.658.232-.142.492-.208.781-.198.368.013.648.117.843.312a.93.93 0 01.278.72.712.712 0 01-.146.435 1.23 1.23 0 01-.422.312c.223.075.387.185.495.328a.803.803 0 01.15.526c-.01.264-.129.488-.358.672-.228.184-.551.268-.968.253-.727-.025-1.161-.358-1.301-.998l.742-.125c.107.337.298.512.572.521a.496.496 0 00.367-.12.423.423 0 00.148-.309.378.378 0 00-.131-.317.575.575 0 00-.368-.127l-.137-.004zm1.989-1.978l1 .017.715 2.387.805-2.36.997.017-.06 3.405-.686-.012.04-2.241-.784 2.229-.689-.012-.67-2.255-.039 2.242-.69-.012.06-3.405zm3.688.058l.858-.03.814 2.392.627-2.442.835-.029-.96 3.313-.173.6c-.064.2-.126.355-.186.462a.958.958 0 01-.212.263.928.928 0 01-.301.163c-.12.04-.257.063-.411.069a1.945 1.945 0 01-.458-.04l-.097-.703c.128.025.242.034.344.03.187-.006.324-.072.41-.198a1.36 1.36 0 00.19-.477l-1.28-3.373zm5.206-.148l.774-.04.113 2.136 1.126-2.201.791-.042.18 3.402-.775.04-.114-2.175-1.142 2.24-.774.04-.179-3.4zm5.455 3.114l-.495-4.676.847-.089.194 1.84 1.656-.172-.195-1.84.846-.089.494 4.677-.845.088-.216-2.045-1.656.173.216 2.045-.846.088zm4.503-2.9l-.746-.046c.035-.337.141-.598.318-.782.178-.185.462-.305.854-.36.357-.05.628-.04.816.03a.84.84 0 01.42.308c.09.136.164.396.219.784l.138 1.043c.042.296.086.514.132.651.045.136.115.281.207.432l-.79.11a3.956 3.956 0 01-.115-.252 1.473 1.473 0 00-.043-.101 1.464 1.464 0 01-.39.395 1.156 1.156 0 01-.483.18c-.31.043-.569-.017-.774-.18a1.007 1.007 0 01-.37-.677c-.027-.19-.01-.366.05-.527a.842.842 0 01.294-.39c.136-.1.339-.2.607-.297.362-.13.61-.24.744-.328l-.012-.089c-.025-.172-.08-.288-.166-.351-.086-.062-.234-.08-.444-.05a.528.528 0 00-.32.141c-.07.073-.12.191-.146.355zm1.17.574c-.096.052-.252.12-.466.205-.214.084-.352.156-.413.216a.39.39 0 00-.112.336.467.467 0 00.17.307c.097.079.21.11.339.092a.655.655 0 00.39-.216.56.56 0 00.148-.323c.01-.079 0-.225-.03-.439l-.026-.178zm1.216-1.91l.743-.116.079.494c.069-.185.177-.343.325-.474.148-.132.322-.213.523-.245.35-.055.671.052.963.32.293.267.482.675.57 1.222.089.562.035 1.018-.16 1.368-.196.35-.47.553-.819.608a.944.944 0 01-.47-.04 1.615 1.615 0 01-.488-.313l.27 1.696-.797.125-.74-4.644zm1.047 1.502c.06.377.172.647.335.805.162.16.34.225.534.194a.562.562 0 00.422-.321c.097-.185.115-.467.055-.845-.056-.353-.162-.605-.316-.756-.154-.15-.324-.211-.51-.182a.592.592 0 00-.446.329c-.102.188-.126.446-.074.776zm2.297-2.078l.787-.167.291 1.362c.127-.044.21-.109.25-.194.038-.084.07-.259.093-.522.03-.35.097-.583.197-.7a.768.768 0 01.442-.238c.06-.013.166-.03.316-.05l.127.583c-.208.044-.337.093-.385.15-.048.058-.081.208-.1.45-.026.327-.118.545-.274.652.265.026.527.222.786.591l.045.06.638.826-.849.18-.599-.88c-.122-.178-.219-.289-.29-.332-.07-.042-.163-.052-.28-.027l.304 1.421-.787.166-.712-3.331zm2.97 1.127a2.029 2.029 0 01-.003-.891c.066-.302.2-.553.402-.75.203-.198.45-.331.74-.398a1.446 1.446 0 011.22.236c.363.26.602.64.717 1.137.117.502.068.951-.144 1.348-.214.398-.54.645-.981.747a1.62 1.62 0 01-.827-.027 1.386 1.386 0 01-.705-.476c-.19-.236-.33-.544-.418-.926zm.818-.138c.076.33.204.565.385.708a.657.657 0 001.034-.237c.099-.207.11-.477.032-.811-.076-.324-.203-.559-.383-.702a.654.654 0 00-1.034.237c-.1.207-.11.476-.034.805zm2.29-2.221l.96-.274 1.387 2.074.076-2.491.958-.274.944 3.275-.66.188-.621-2.156-.094 2.36-.662.188-1.304-1.96.622 2.155-.663.189-.944-3.274zm4.865-.29l-.74.096c-.03-.338.023-.613.161-.829.14-.214.395-.386.77-.514.34-.117.61-.158.807-.125a.844.844 0 01.47.222c.116.116.238.358.366.728l.336.998c.098.282.183.487.254.614.07.125.167.254.287.384l-.755.259a3.923 3.923 0 01-.16-.227 1.439 1.439 0 00-.062-.09 1.46 1.46 0 01-.308.461c-.124.121-.27.21-.439.269-.296.101-.562.091-.794-.03a1.01 1.01 0 01-.494-.595 1.058 1.058 0 01-.052-.526c.029-.17.1-.316.214-.44.114-.123.294-.259.539-.406.33-.197.553-.352.668-.463l-.03-.085c-.057-.164-.133-.268-.23-.313-.096-.045-.244-.034-.445.035a.527.527 0 00-.287.2c-.056.084-.08.21-.076.376zm1.26.341c-.085.07-.225.166-.42.29-.193.123-.314.22-.363.29a.39.39 0 00-.046.351.47.47 0 00.227.269c.11.06.226.068.35.026a.654.654 0 00.341-.286.56.56 0 00.084-.345 1.946 1.946 0 00-.114-.425l-.06-.17zm.776-2.142l.755-.288.449 1.165 1.077-.412-.45-1.164.757-.289 1.228 3.18-.757.289-.516-1.336-1.077.411.516 1.336-.754.288-1.228-3.18zm3.155-1.137l.708-.314.875 1.954.259-2.456.723-.32 1.393 3.111-.708.314-.89-1.99-.26 2.498-.707.314-1.393-3.111zm3.093-1.367l.685-.361 1.01 1.888.085-2.468.7-.37 1.608 3.008-.685.362-1.028-1.923-.082 2.51-.685.362-1.608-3.008zm5.566.628l-.11-1.625-1.407-.885.544-.325 1.544.803-.028 1.708-.543.324zm-.965.577l-.11-1.625-1.406-.886.543-.325 1.544.803-.027 1.708-.543.325z" fill="#393186"/></svg>