<svg width="24" height="24" fill="none" xmlns="http://www.w3.org/2000/svg"><path d="M16.212 13.476c-.588-.348-1.616-1.199-2.573-.288l-.473.483c-.87-.412-2.416-1.905-2.817-2.847 1.421-1.292.763-1.752-.634-4.406-.239-.412-.626-.686-1.098-.686-.579 0-.805.285-1.632 1.122C5.95 7.9 5.343 8.23 5.732 10.004c1.108 5.05 8.501 10.107 10.595 7.846 1.71-1.699 2.04-1.86 1.94-2.628-.127-.764-.714-.952-2.055-1.746zm-.916 3.417c-.12.133-.835.176-2.023-.317-2.252-.934-4.588-3.386-5.545-5.217-.305-.583-.98-2.312-.605-2.65.153-.145 1.182-1.196 1.445-1.45.701 1.328 1.043 1.95 1.156 2.202-.202.312-.846.555-.846 1.319.283 1.491 2.224 3.32 3.384 4 1.184.694 1.563.23 1.994-.212.385-.395.352-.37.392-.375l2.118 1.245c-.248.26-1.298 1.275-1.47 1.455z" fill="#A3C359"/><path d="M12 0C5.367 0 0 5.368 0 12c0 6.633 5.368 12 12 12 6.633 0 12-5.368 12-12 0-6.633-5.368-12-12-12zm0 22.594A10.588 10.588 0 011.406 12 10.588 10.588 0 0112 1.406 10.588 10.588 0 0122.594 12 10.588 10.588 0 0112 22.594z" fill="#A3C359"/></svg>