<svg width="326" height="26" viewBox="0 0 326 26" fill="none" xmlns="http://www.w3.org/2000/svg">
<g clip-path="url(#clip0)">
<path d="M230.955 0.0172935C233.85 0.0251294 236.746 0.0213446 239.643 0.0186426C241.006 0.00134944 242.371 0.686589 243.115 1.80578C243.808 2.76339 244.072 3.92229 244.412 5.02554C245.461 8.46471 246.493 11.9096 247.544 15.3487C247.562 15.6597 248.034 15.7786 248.127 15.4481C249.2 11.9757 250.235 8.49253 251.3 5.01743C251.665 3.7926 251.98 2.49237 252.831 1.48558C253.379 0.833311 254.145 0.369099 254.977 0.152125C255.686 -0.03972 256.43 0.033233 257.156 0.0213439C259.699 0.0305309 262.243 -1.32145e-07 264.785 0.037018C264.767 8.67655 264.795 17.316 264.77 25.9539C262.02 25.9368 259.268 25.9778 256.518 25.9328C256.518 20.865 256.53 15.7972 256.512 10.7295C256.495 10.2783 255.729 10.3167 255.677 10.7415C254.039 15.8037 252.391 20.8637 250.777 25.9328C248.835 25.9764 246.89 25.942 244.946 25.95C243.311 20.8875 241.689 15.821 240.036 10.7639C239.967 10.3458 239.461 10.3313 239.188 10.5761C239.193 15.6967 239.181 20.8175 239.193 25.9381C236.447 25.9712 233.701 25.9394 230.955 25.9539C230.954 17.3079 230.954 8.66331 230.955 0.0172935ZM268.54 0.0332347C271.285 -0.00783646 274.033 0.0543112 276.778 0C276.821 5.12875 276.783 10.2586 276.796 15.3873C277.032 15.5922 277.463 15.6557 277.607 15.3158C279.435 11.584 281.255 7.84836 283.082 4.11549C283.661 2.95658 284.131 1.69986 285.074 0.763328C285.497 0.374503 286.023 -0.00270192 286.634 0.0237782C289.433 0.0251292 292.232 0.00675459 295.032 0.0332347C295.036 8.66842 295.036 17.304 295.032 25.9394C292.286 25.9606 289.539 25.9592 286.791 25.9407C286.789 20.8253 286.802 15.7086 286.786 10.5934C286.779 10.154 286.016 10.1897 285.937 10.5839C284.214 14.2852 282.499 17.9891 280.778 21.6905C280.249 22.8135 279.746 23.971 278.956 24.9498C278.516 25.4949 277.873 25.9843 277.125 25.9513C274.265 25.95 271.403 25.9553 268.543 25.9487C268.543 17.3105 268.547 8.67118 268.54 0.0332347ZM299.049 11.8685C307.676 11.8114 316.305 11.8685 324.932 11.8406C324.641 12.9982 323.873 13.9945 323.059 14.8635C321.454 16.5605 319.146 17.5963 316.775 17.6572C313.624 17.673 310.472 17.6545 307.319 17.6664C307.301 20.4299 307.319 23.1919 307.311 25.9553C304.562 25.9434 301.812 25.9632 299.062 25.9434C299.049 21.2526 299.075 16.5605 299.049 11.8685Z" fill="#3DA536"/>
<path d="M298 0.032156C304.446 0.0240498 310.891 0.0189159 317.337 0.0254009C319.028 0.14321 320.661 0.811158 322 1.81389C323.945 3.28893 325.256 5.55217 325.472 7.95051C325.523 8.81438 325.505 9.68493 325.374 10.5407C321.424 10.5631 317.474 10.5421 313.525 10.5472C312.169 10.5353 310.806 10.6015 309.46 10.4072C306.428 10.0327 303.437 8.80244 301.288 6.64487C299.476 4.87612 298.36 2.49264 298 0.032156Z" fill="#008CD2"/>
<path d="M32.5703 25.2761L37.0823 0.81543H44.1321L39.7613 25.2761H32.5703Z" fill="#3C58BF"/>
<path d="M32.5703 25.2761L38.3513 0.81543H44.1321L39.7613 25.2761H32.5703Z" fill="#293688"/>
<path d="M65.2817 1.08713C63.8717 0.543568 61.6158 0 58.7958 0C51.746 0 46.6701 3.3973 46.6701 8.28942C46.6701 11.9585 50.195 13.861 53.015 15.0841C55.8349 16.3071 56.6809 17.1224 56.6809 18.2095C56.6809 19.8402 54.4249 20.6556 52.451 20.6556C49.6311 20.6556 48.08 20.2479 45.6831 19.2967L44.6961 18.8891L43.7091 24.4606C45.4011 25.1401 48.503 25.8195 51.746 25.8195C59.2188 25.8195 64.1538 22.4222 64.1538 17.2583C64.1538 14.4046 62.3208 12.2303 58.0909 10.4637C55.5529 9.24065 54.0019 8.56121 54.0019 7.33818C54.0019 6.25104 55.2709 5.16391 58.0909 5.16391C60.4878 5.16391 62.1798 5.57158 63.4487 6.11515L64.1538 6.38694L65.2817 1.08713Z" fill="#3C58BF"/>
<path d="M65.2817 1.08713C63.8717 0.543568 61.6158 0 58.7958 0C51.746 0 47.9391 3.3973 47.9391 8.28942C47.9391 11.9585 50.195 13.861 53.015 15.0841C55.8349 16.3071 56.6809 17.1224 56.6809 18.2095C56.6809 19.8402 54.4249 20.6556 52.451 20.6556C49.6311 20.6556 48.08 20.2479 45.6831 19.2967L44.6961 18.8891L43.7091 24.4606C45.4011 25.1401 48.503 25.8195 51.746 25.8195C59.2188 25.8195 64.1538 22.4222 64.1538 17.2583C64.1538 14.4046 62.3208 12.2303 58.0909 10.4637C55.5529 9.24065 54.0019 8.56121 54.0019 7.33818C54.0019 6.25104 55.2709 5.16391 58.0909 5.16391C60.4878 5.16391 62.1798 5.57158 63.4487 6.11515L64.1538 6.38694L65.2817 1.08713Z" fill="#293688"/>
<path d="M77.4075 0.81543C75.7156 0.81543 74.4466 0.951327 73.7416 2.58203L63.1668 25.2761H70.7806L72.1906 21.1992H81.2144L82.0604 25.2761H88.8283L82.9064 0.81543H77.4075ZM74.1646 17.1225C74.5876 15.8995 76.9845 9.92024 76.9845 9.92024C76.9845 9.92024 77.5485 8.4254 77.9715 7.47415L78.3945 9.78432C78.3945 9.78432 79.8044 15.8995 80.0865 17.2584H74.1646V17.1225Z" fill="#3C58BF"/>
<path d="M79.0995 0.81543C77.4075 0.81543 76.1385 0.951327 75.4336 2.58203L63.1668 25.2761H70.7806L72.1906 21.1992H81.2144L82.0604 25.2761H88.8283L82.9064 0.81543H79.0995ZM74.1646 17.1225C74.7285 15.7636 76.9845 9.92024 76.9845 9.92024C76.9845 9.92024 77.5485 8.4254 77.9715 7.47415L78.3945 9.78432C78.3945 9.78432 79.8044 15.8995 80.0865 17.2584H74.1646V17.1225Z" fill="#293688"/>
<path d="M19.5987 17.9377L18.8937 14.4045C17.6248 10.3277 13.5358 5.84329 9.0239 3.66901L15.3688 25.4118H22.9826L34.4034 0.951172H26.7896L19.5987 17.9377Z" fill="#3C58BF"/>
<path d="M19.5987 17.9377L18.8937 14.4045C17.6248 10.3277 13.5358 5.84329 9.0239 3.66901L15.3688 25.4118H22.9826L34.4034 0.951172H28.1995L19.5987 17.9377Z" fill="#293688"/>
<path d="M0 0.81543L1.26898 1.08721C10.2928 3.12559 16.4967 8.2895 18.8936 14.4046L16.3557 2.85382C15.9327 1.22311 14.6637 0.81543 13.1128 0.81543H0Z" fill="#FFBC00"/>
<path d="M0 0.81543C9.0238 2.85382 16.4967 8.15361 18.8936 14.2687L16.4967 4.62041C16.0737 2.98971 14.6637 2.03846 13.1128 2.03846L0 0.81543Z" fill="#F7981D"/>
<path d="M0 0.81543C9.0238 2.85382 16.4967 8.15361 18.8936 14.2687L17.2017 8.96897C16.7787 7.33825 16.2147 5.70755 14.2407 5.02809L0 0.81543Z" fill="#ED7C00"/>
<path d="M26.6485 17.1224L21.8546 12.5021L19.5986 17.666L19.0347 14.2686C17.7657 10.1919 13.6768 5.70748 9.16486 3.5332L15.5098 25.276H23.1236L26.6485 17.1224Z" fill="#051244"/>
<path d="M39.7612 25.2761L33.6984 19.2969L32.5703 25.2761H39.7612Z" fill="#051244"/>
<path d="M55.976 16.8506C56.54 17.3942 56.822 17.8019 56.681 18.3454C56.681 19.9761 54.425 20.7915 52.4511 20.7915C49.6311 20.7915 48.0802 20.3838 45.6832 19.4325L44.6962 19.0249L43.7092 24.5965C45.4012 25.276 48.5031 25.9554 51.7461 25.9554C56.258 25.9554 59.9239 24.7324 62.0389 22.5581L55.976 16.8506Z" fill="#051244"/>
<path d="M64.1539 25.2755H70.7807L72.1907 21.1987H81.2145L82.0605 25.2755H88.8283L86.4315 15.3554L77.9716 7.47363L78.3946 9.64788C78.3946 9.64788 79.8045 15.7631 80.0866 17.122H74.1646C74.7286 15.7631 76.9846 9.91971 76.9846 9.91971C76.9846 9.91971 77.5487 8.42487 77.9716 7.47363" fill="#051244"/>
<path d="M190.981 22.5908C193.66 20.2562 195.352 16.8229 195.352 12.9777C195.352 9.1325 193.66 5.76787 190.981 3.36459C188.655 1.30464 185.482 0 182.098 0C174.766 0 168.774 5.83653 168.774 12.9777C168.774 20.1189 174.766 25.8867 182.098 25.8867C185.482 25.9554 188.655 24.6508 190.981 22.5908Z" fill="#07A9E2"/>
<path d="M168.774 12.9777C168.774 20.1189 174.766 25.8867 182.098 25.8867C185.553 25.8867 188.655 24.6508 190.981 22.5221C193.66 20.1875 195.352 16.7543 195.352 12.909C195.352 9.0638 193.66 5.76787 190.981 3.36459C188.655 1.30464 185.482 0 182.098 0" fill="#009DDD"/>
<path d="M190.981 3.36459C188.655 1.30464 185.482 0 182.098 0C181.887 0 181.675 0 181.464 0C177.304 2.9526 174.625 7.69049 174.625 12.9777C174.625 18.2649 177.304 23.0028 181.393 25.8867C181.604 25.8867 181.817 25.8867 182.028 25.8867C185.482 25.8867 188.584 24.6508 190.911 22.5221C193.589 20.1875 195.281 16.7543 195.281 12.909C195.281 9.0638 193.66 5.76787 190.981 3.36459Z" fill="#0284CC"/>
<path d="M199.934 0C196.48 0 193.378 1.23597 190.981 3.36459C190.487 3.77658 190.064 4.25723 189.641 4.73789H192.32C192.673 5.14988 193.026 5.63054 193.307 6.11119H188.584C188.302 6.59185 188.02 7.00384 187.809 7.48449H194.083C194.294 7.96515 194.506 8.37714 194.647 8.8578H187.315C187.174 9.33841 187.033 9.75041 186.892 10.2311H195.07C195.281 11.1237 195.352 12.0164 195.352 12.9777C195.352 14.4197 195.141 15.793 194.647 17.0976H187.315C187.456 17.5783 187.668 17.9902 187.879 18.4709H194.153C193.942 18.9516 193.66 19.4322 193.378 19.8442H188.655C188.936 20.3249 189.289 20.8055 189.641 21.2175H192.32C191.898 21.6982 191.475 22.1788 190.981 22.5908C193.378 24.6508 196.48 25.9554 199.934 25.9554C207.266 25.9554 213.188 20.1875 213.188 13.0464C213.188 5.83653 207.266 0 199.934 0Z" fill="#FF2957"/>
<path d="M199.934 0C196.48 0 193.378 1.23597 190.981 3.36459C190.487 3.77658 190.064 4.25723 189.641 4.73789H192.32C192.673 5.14988 193.026 5.63054 193.307 6.11119H188.584C188.302 6.59185 188.02 7.00384 187.809 7.48449H194.083C194.294 7.96515 194.506 8.37714 194.647 8.8578H187.315C187.174 9.33841 187.033 9.75041 186.892 10.2311H195.07C195.281 11.1237 195.352 12.0164 195.352 12.9777C195.352 14.4197 195.141 15.793 194.647 17.0976H187.315C187.456 17.5783 187.668 17.9902 187.879 18.4709H194.153C193.942 18.9516 193.66 19.4322 193.378 19.8442H188.655C188.936 20.3249 189.289 20.8055 189.641 21.2175H192.32C191.898 21.6982 191.475 22.1788 190.981 22.5908C193.378 24.6508 196.48 25.9554 199.934 25.9554C207.266 25.9554 213.188 20.1875 213.188 13.0464" fill="#ED1C2E"/>
<path d="M190.981 22.5905C193.66 20.2559 195.352 16.8226 195.352 12.9774C195.352 9.13216 193.66 5.76753 190.981 3.36426V22.5905Z" fill="#0466B5"/>
<path d="M208.605 15.7929C208.605 15.5869 208.817 15.3809 209.028 15.3809C209.24 15.3809 209.452 15.5869 209.452 15.7929C209.452 15.9989 209.24 16.2049 209.028 16.2049C208.817 16.2049 208.605 15.9989 208.605 15.7929ZM209.028 16.1362C209.24 16.1362 209.311 15.9989 209.311 15.7929C209.311 15.5869 209.169 15.5182 209.028 15.5182C208.817 15.5182 208.676 15.6555 208.676 15.7929C208.676 15.9302 208.888 16.1362 209.028 16.1362ZM209.028 15.9302H208.958V15.5869H209.099C209.169 15.5869 209.169 15.5869 209.169 15.5869L209.24 15.6555C209.24 15.7242 209.24 15.7242 209.169 15.7242L209.24 15.8615H209.169L209.099 15.7242H209.028V15.9302ZM209.028 15.7242C209.099 15.7242 209.099 15.7242 209.099 15.7242C209.099 15.7242 209.099 15.7242 209.099 15.6555H209.028V15.7242Z" fill="white"/>
<path d="M190.981 3.36507C190.487 3.77706 190.064 4.25772 189.641 4.73837H192.32C192.673 5.15036 193.026 5.63102 193.307 6.11167H188.584C188.302 6.59233 188.02 7.00432 187.809 7.48498H194.083C194.294 7.96563 194.506 8.37763 194.647 8.85828H187.315C187.174 9.33898 187.033 9.75089 186.892 10.2316H195.07C195.281 11.1242 195.352 12.0169 195.352 12.9782C195.352 14.4202 195.141 15.7935 194.647 17.0981H187.315C187.456 17.5788 187.668 17.9908 187.879 18.4714H194.153C193.942 18.9521 193.66 19.4327 193.378 19.8447H188.654C188.936 20.3254 189.289 20.806 189.641 21.218H192.32C191.898 21.6987 191.475 22.1793 190.981 22.5913C193.378 24.6513 196.48 25.9559 199.934 25.9559C200.145 25.9559 200.358 25.9559 200.569 25.9559C204.658 23.072 207.337 18.3341 207.337 13.0469C207.337 7.75964 204.658 3.02175 200.569 0.137814C200.358 0.137814 200.145 0.137814 199.934 0.137814C196.48 0.000484526 193.378 1.30512 190.981 3.36507Z" fill="#D1094B"/>
<path d="M180.406 16.2052H178.714L179.701 11.1926L177.445 16.2052H175.964L175.683 11.1926L174.696 16.2052H173.215L174.485 9.61328H177.093L177.234 13.7332L179.066 9.61328H181.745L180.406 16.2052Z" fill="white"/>
<path d="M178.785 13.3208L179.772 11.1922L178.996 15.1748C179.066 15.5181 179.137 15.9301 179.278 16.2734H180.406L181.675 9.68164H179.208C178.926 10.7116 178.714 11.8789 178.714 13.0462C178.785 13.1148 178.785 13.1835 178.785 13.3208Z" fill="#DCE5E5"/>
<path d="M198.877 16.1361C198.383 16.2734 198.101 16.3421 197.679 16.3421C196.832 16.3421 196.409 15.9301 196.409 15.1748C196.409 15.0375 196.409 14.9001 196.479 14.6941L196.55 14.1448L196.621 13.7328L197.396 9.68164H199.018L198.806 10.9176H199.652L199.441 12.1535H198.594L198.172 14.3508C198.172 14.4195 198.101 14.5568 198.101 14.5568C198.101 14.8315 198.313 14.9688 198.665 14.9688C198.877 14.9688 199.018 14.9688 199.088 14.9001L198.877 16.1361Z" fill="#DCE5E5"/>
<path d="M203.741 10.9176C203.6 10.849 203.6 10.849 203.53 10.849C203.46 10.849 203.388 10.849 203.388 10.7803C203.318 10.7803 203.318 10.7803 203.177 10.7803C202.613 10.7803 202.26 10.9863 201.767 11.673L201.909 10.849H200.428L199.441 16.2049H201.133C201.696 12.9089 201.979 12.3596 202.754 12.3596C202.824 12.3596 202.895 12.3596 202.966 12.3596L203.177 12.4283L203.741 10.9176Z" fill="#DCE5E5"/>
<path d="M192.32 12.5656C192.32 13.2523 192.743 13.7329 193.59 14.0076C194.294 14.2822 194.365 14.3509 194.365 14.6256C194.365 14.9689 194.083 15.1062 193.378 15.1062C192.885 15.1062 192.391 15.0375 191.898 14.9002L191.686 16.1362H191.756L192.039 16.2049C192.109 16.2049 192.32 16.2049 192.462 16.2049C192.885 16.2735 193.166 16.2735 193.378 16.2735C195.141 16.2735 195.986 15.7242 195.986 14.4882C195.986 13.7329 195.634 13.3209 194.788 12.9776C194.083 12.7029 194.013 12.6343 194.013 12.4283C194.013 12.1536 194.294 12.0163 194.858 12.0163C195.141 12.0163 195.634 12.0163 196.057 12.0849L196.268 10.849C195.845 10.7803 195.211 10.7803 194.788 10.7803C192.955 10.7803 192.32 11.6043 192.32 12.5656Z" fill="#DCE5E5"/>
<path d="M185.764 16.2051H184.425V15.6557C184.002 16.0677 183.438 16.2737 182.662 16.2737C181.745 16.2737 181.181 15.6557 181.181 14.8318C181.181 13.5271 182.239 12.7718 184.072 12.7718C184.283 12.7718 184.495 12.7718 184.777 12.7718C184.847 12.5658 184.847 12.4971 184.847 12.4285C184.847 12.0852 184.566 11.9478 183.79 11.9478C183.296 11.9478 182.803 12.0165 182.451 12.0852L182.239 12.1538H182.098L182.31 10.9865C183.155 10.7805 183.649 10.7119 184.283 10.7119C185.694 10.7119 186.469 11.2612 186.469 12.2911C186.469 12.5658 186.469 12.7718 186.328 13.3898L185.975 15.3124L185.905 15.6557L185.834 15.9304V16.1364L185.764 16.2051ZM184.566 13.8018C184.354 13.8018 184.283 13.8018 184.213 13.8018C183.296 13.8018 182.803 14.0764 182.803 14.6258C182.803 14.9691 183.015 15.1751 183.367 15.1751C184.072 15.1751 184.566 14.6258 184.566 13.8018Z" fill="#DCE5E5"/>
<path d="M191.192 16.0677C190.628 16.2051 190.064 16.2737 189.5 16.2737C187.668 16.2737 186.681 15.4497 186.681 13.8704C186.681 12.0165 187.879 10.7119 189.571 10.7119C190.911 10.7119 191.756 11.4672 191.756 12.6345C191.756 13.0465 191.686 13.3898 191.545 13.9391H188.232C188.232 14.0078 188.232 14.0764 188.232 14.1451C188.232 14.7631 188.725 15.1064 189.641 15.1064C190.276 15.1064 190.769 15.0377 191.334 14.7631L191.192 16.0677ZM190.347 12.9091C190.347 12.8405 190.347 12.7031 190.347 12.6345C190.347 12.2225 190.064 11.9478 189.571 11.9478C189.077 11.9478 188.654 12.2911 188.513 12.9091H190.347Z" fill="#DCE5E5"/>
<path d="M208.888 13.8018C208.605 15.5871 207.337 16.3424 205.645 16.3424C203.811 16.3424 203.036 15.2437 203.036 13.8704C203.036 12.0165 204.305 10.7119 206.279 10.7119C207.971 10.7119 208.888 11.8105 208.888 13.1151C208.888 13.4585 208.888 13.4585 208.888 13.8018ZM207.125 13.1151C207.125 12.5658 206.913 12.0852 206.209 12.0852C205.362 12.0852 204.869 13.0465 204.869 13.9391C204.869 14.6258 205.222 15.1064 205.786 15.1064C206.138 15.1064 206.913 14.6258 207.054 13.8018C207.125 13.5271 207.125 13.3211 207.125 13.1151Z" fill="white"/>
<path d="M203.107 14.4887C203.177 14.0081 203.247 13.4588 203.247 12.9781C203.247 12.9094 203.247 12.8408 203.247 12.8408C203.177 13.1841 203.107 13.5274 203.107 13.9394C203.036 14.0767 203.036 14.2827 203.107 14.4887Z" fill="white"/>
<path d="M151.008 12.9777C151.008 20.1189 145.086 25.9554 137.684 25.9554C130.352 25.9554 124.36 20.1189 124.36 12.9777C124.36 5.83653 130.282 0 137.614 0C145.086 0 151.008 5.83653 151.008 12.9777Z" fill="#FFB600"/>
<path d="M137.684 0C145.016 0 151.008 5.83653 151.008 12.9777C151.008 20.1189 145.086 25.9554 137.684 25.9554C130.352 25.9554 124.36 20.1189 124.36 12.9777" fill="#F7981D"/>
<path d="M137.684 0C145.016 0 151.008 5.83653 151.008 12.9777C151.008 20.1189 145.086 25.9554 137.684 25.9554" fill="#FF8500"/>
<path d="M119.777 0C112.516 0.0686651 106.594 5.83653 106.594 12.9777C106.594 20.1189 112.516 25.9554 119.918 25.9554C123.373 25.9554 126.475 24.6508 128.871 22.5908C129.365 22.1788 129.788 21.6982 130.211 21.2175H127.462C127.109 20.8055 126.756 20.3249 126.475 19.9129H131.198C131.48 19.5009 131.762 19.0202 131.973 18.5396H125.699C125.488 18.1276 125.276 17.6469 125.135 17.1663H132.467C132.89 15.8616 133.172 14.4883 133.172 13.0464C133.172 12.0851 133.031 11.1924 132.89 10.2998H124.712C124.782 9.81911 124.924 9.40711 125.065 8.9265H132.397C132.256 8.4458 132.044 7.96515 131.833 7.55316H125.629C125.84 7.0725 126.122 6.66051 126.404 6.17986H131.128C130.846 5.6992 130.493 5.21855 130.07 4.80656H127.462C127.884 4.3259 128.307 3.91391 128.801 3.50192C126.475 1.3733 123.303 0.13733 119.848 0.13733C119.848 -1.28922e-07 119.848 0 119.777 0Z" fill="#FF5050"/>
<path d="M106.594 12.9781C106.594 20.1193 112.516 25.9558 119.918 25.9558C123.373 25.9558 126.475 24.6512 128.871 22.5912C129.365 22.1792 129.788 21.6986 130.211 21.2179H127.462C127.109 20.8059 126.756 20.3253 126.475 19.9133H131.198C131.48 19.5013 131.762 19.0206 131.973 18.54H125.699C125.488 18.128 125.276 17.6473 125.135 17.1667H132.467C132.89 15.862 133.172 14.4887 133.172 13.0468C133.172 12.0855 133.031 11.1928 132.89 10.3002H124.712C124.782 9.81947 124.924 9.40747 125.065 8.92687H132.397C132.256 8.44617 132.044 7.96552 131.833 7.55353H125.629C125.84 7.07287 126.122 6.66088 126.404 6.18023H131.128C130.846 5.69957 130.493 5.21891 130.07 4.80692H127.462C127.884 4.32627 128.307 3.91428 128.801 3.50229C126.475 1.37367 123.303 0.137695 119.848 0.137695H119.777" fill="#E52836"/>
<path d="M119.918 25.9558C123.373 25.9558 126.475 24.6512 128.871 22.5912C129.365 22.1792 129.788 21.6986 130.211 21.2179H127.462C127.109 20.8059 126.756 20.3253 126.475 19.9133H131.198C131.48 19.5013 131.762 19.0206 131.973 18.54H125.699C125.488 18.128 125.276 17.6473 125.135 17.1667H132.467C132.89 15.862 133.172 14.4887 133.172 13.0468C133.172 12.0855 133.031 11.1928 132.89 10.3002H124.712C124.783 9.81947 124.924 9.40747 125.065 8.92687H132.397C132.256 8.44617 132.044 7.96552 131.833 7.55353H125.629C125.84 7.07287 126.122 6.66088 126.405 6.18023H131.128C130.846 5.69957 130.493 5.21891 130.07 4.80692H127.462C127.884 4.32627 128.307 3.91428 128.801 3.50229C126.475 1.37367 123.303 0.137695 119.848 0.137695H119.777" fill="#CB2026"/>
<path d="M124.641 16.274L124.854 15.1067C124.783 15.1067 124.641 15.1753 124.501 15.1753C124.007 15.1753 123.937 14.9007 124.007 14.7633L124.43 12.36H125.205L125.417 11.0554H124.712L124.854 10.2314H123.443C123.443 10.2314 122.597 14.7633 122.597 15.3127C122.597 16.1366 123.09 16.48 123.725 16.48C124.148 16.48 124.501 16.3426 124.641 16.274Z" fill="white"/>
<path d="M125.135 14.0761C125.135 15.9988 126.475 16.4794 127.603 16.4794C128.66 16.4794 129.083 16.2734 129.083 16.2734L129.365 14.9688C129.365 14.9688 128.59 15.3121 127.884 15.3121C126.333 15.3121 126.616 14.2135 126.616 14.2135H129.506C129.506 14.2135 129.718 13.3208 129.718 12.9775C129.718 12.0849 129.224 10.9862 127.673 10.9862C126.193 10.8489 125.135 12.3595 125.135 14.0761ZM127.603 12.0849C128.378 12.0849 128.237 12.9775 128.237 13.0462H126.686C126.686 12.9775 126.827 12.0849 127.603 12.0849Z" fill="white"/>
<path d="M136.556 16.2738L136.838 14.7632C136.838 14.7632 136.133 15.1065 135.639 15.1065C134.652 15.1065 134.229 14.3512 134.229 13.5272C134.229 11.8793 135.076 10.9866 136.063 10.9866C136.767 10.9866 137.331 11.3986 137.331 11.3986L137.543 9.95658C137.543 9.95658 136.697 9.61328 135.922 9.61328C134.3 9.61328 132.678 10.9866 132.678 13.5959C132.678 15.3125 133.524 16.4798 135.216 16.4798C135.78 16.4798 136.556 16.2738 136.556 16.2738Z" fill="white"/>
<path d="M116.887 10.8486C115.9 10.8486 115.195 11.1232 115.195 11.1232L114.983 12.2906C114.983 12.2906 115.618 12.0159 116.534 12.0159C117.028 12.0159 117.451 12.0846 117.451 12.4965C117.451 12.7712 117.38 12.8399 117.38 12.8399C117.38 12.8399 116.958 12.8399 116.746 12.8399C115.547 12.8399 114.207 13.3205 114.207 14.8998C114.207 16.1358 115.054 16.4105 115.547 16.4105C116.534 16.4105 116.958 15.7925 117.028 15.7925L116.958 16.3418H118.226L118.79 12.5652C118.79 10.9173 117.38 10.8486 116.887 10.8486ZM117.169 13.9385C117.169 14.1445 117.028 15.2432 116.182 15.2432C115.758 15.2432 115.618 14.8998 115.618 14.6938C115.618 14.3505 115.829 13.8699 116.887 13.8699C117.098 13.9385 117.169 13.9385 117.169 13.9385Z" fill="white"/>
<path d="M120.13 16.4109C120.482 16.4109 122.245 16.4795 122.245 14.6256C122.245 12.9089 120.552 13.2523 120.552 12.5656C120.552 12.2223 120.835 12.085 121.328 12.085C121.539 12.085 122.315 12.1536 122.315 12.1536L122.527 10.9177C122.527 10.9177 122.033 10.7803 121.188 10.7803C120.13 10.7803 119.073 11.1923 119.073 12.5656C119.073 14.1449 120.835 14.0076 120.835 14.6256C120.835 15.0376 120.341 15.1062 119.988 15.1062C119.354 15.1062 118.72 14.9002 118.72 14.9002L118.509 16.1362C118.579 16.2735 118.931 16.4109 120.13 16.4109Z" fill="white"/>
<path d="M148.259 9.75L147.976 11.604C147.976 11.604 147.412 10.9174 146.637 10.9174C145.368 10.9174 144.24 12.428 144.24 14.2133C144.24 15.3119 144.804 16.4792 146.003 16.4792C146.848 16.4792 147.342 15.9299 147.342 15.9299L147.272 16.4106H148.682L149.739 9.8187L148.259 9.75ZM147.625 13.3893C147.625 14.1446 147.272 15.1059 146.497 15.1059C146.003 15.1059 145.721 14.6939 145.721 14.0073C145.721 12.9086 146.214 12.222 146.848 12.222C147.342 12.222 147.625 12.5653 147.625 13.3893Z" fill="white"/>
<path d="M109.203 16.3419L110.049 11.398L110.19 16.3419H111.177L113.009 11.398L112.234 16.3419H113.714L114.843 9.75H112.516L111.106 13.8013L111.035 9.75H108.991L107.863 16.3419H109.203Z" fill="white"/>
<path d="M131.057 16.3422C131.48 14.0762 131.55 12.2223 132.537 12.5656C132.678 11.673 132.89 11.3296 133.031 10.9863C133.031 10.9863 132.961 10.9863 132.749 10.9863C132.114 10.9863 131.621 11.8103 131.621 11.8103L131.762 11.055H130.422L129.506 16.4109H131.057V16.3422Z" fill="white"/>
<path d="M139.799 10.8486C138.812 10.8486 138.107 11.1232 138.107 11.1232L137.895 12.2906C137.895 12.2906 138.53 12.0159 139.446 12.0159C139.94 12.0159 140.363 12.0846 140.363 12.4965C140.363 12.7712 140.293 12.8399 140.293 12.8399C140.293 12.8399 139.869 12.8399 139.658 12.8399C138.459 12.8399 137.12 13.3205 137.12 14.8998C137.12 16.1358 137.966 16.4105 138.459 16.4105C139.446 16.4105 139.869 15.7925 139.94 15.7925L139.869 16.3418H141.138L141.703 12.5652C141.773 10.9173 140.293 10.8486 139.799 10.8486ZM140.152 13.9385C140.152 14.1445 140.01 15.2432 139.165 15.2432C138.742 15.2432 138.601 14.8998 138.601 14.6938C138.601 14.3505 138.812 13.8699 139.869 13.8699C140.081 13.9385 140.081 13.9385 140.152 13.9385Z" fill="white"/>
<path d="M142.901 16.3422C143.324 14.0762 143.395 12.2223 144.382 12.5656C144.522 11.673 144.733 11.3296 144.875 10.9863C144.875 10.9863 144.804 10.9863 144.593 10.9863C143.958 10.9863 143.465 11.8103 143.465 11.8103L143.606 11.055H142.267L141.35 16.4109H142.901V16.3422Z" fill="white"/>
<path d="M122.456 15.3127C122.456 16.1366 122.95 16.48 123.584 16.48C124.078 16.48 124.501 16.3426 124.641 16.274L124.854 15.1067C124.783 15.1067 124.641 15.1753 124.501 15.1753C124.007 15.1753 123.937 14.9007 124.007 14.7633L124.43 12.36H125.205L125.418 11.0554H124.712L124.854 10.2314" fill="#DCE5E5"/>
<path d="M125.84 14.0761C125.84 15.9988 126.475 16.4794 127.603 16.4794C128.66 16.4794 129.083 16.2734 129.083 16.2734L129.365 14.9688C129.365 14.9688 128.59 15.3121 127.884 15.3121C126.333 15.3121 126.616 14.2135 126.616 14.2135H129.506C129.506 14.2135 129.718 13.3208 129.718 12.9775C129.718 12.0849 129.224 10.9862 127.673 10.9862C126.192 10.8489 125.84 12.3595 125.84 14.0761ZM127.603 12.0849C128.378 12.0849 128.519 12.9775 128.519 13.0462H126.686C126.686 12.9775 126.827 12.0849 127.603 12.0849Z" fill="#DCE5E5"/>
<path d="M136.556 16.2738L136.838 14.7632C136.838 14.7632 136.133 15.1065 135.639 15.1065C134.652 15.1065 134.229 14.3512 134.229 13.5272C134.229 11.8793 135.075 10.9866 136.063 10.9866C136.767 10.9866 137.331 11.3986 137.331 11.3986L137.543 9.95658C137.543 9.95658 136.697 9.61328 135.922 9.61328C134.3 9.61328 133.384 10.9866 133.384 13.5959C133.384 15.3125 133.524 16.4798 135.216 16.4798C135.78 16.4798 136.556 16.2738 136.556 16.2738Z" fill="#DCE5E5"/>
<path d="M114.983 12.3596C114.983 12.3596 115.618 12.085 116.534 12.085C117.028 12.085 117.451 12.1536 117.451 12.5656C117.451 12.8403 117.38 12.9089 117.38 12.9089C117.38 12.9089 116.958 12.9089 116.746 12.9089C115.547 12.9089 114.207 13.3896 114.207 14.9689C114.207 16.2049 115.054 16.4795 115.547 16.4795C116.534 16.4795 116.958 15.8615 117.028 15.8615L116.958 16.4109H118.226L118.79 12.6343C118.79 11.055 117.38 10.9863 116.816 10.9863L114.983 12.3596ZM117.873 13.9389C117.873 14.1449 117.028 15.2436 116.182 15.2436C115.758 15.2436 115.618 14.9002 115.618 14.6942C115.618 14.3509 115.829 13.8702 116.887 13.8702C117.098 13.9389 117.873 13.9389 117.873 13.9389Z" fill="#DCE5E5"/>
<path d="M118.579 16.2735C118.579 16.2735 119.002 16.4109 120.2 16.4109C120.552 16.4109 122.315 16.4795 122.315 14.6256C122.315 12.9089 120.624 13.2523 120.624 12.5656C120.624 12.2223 120.905 12.085 121.399 12.085C121.61 12.085 122.386 12.1536 122.386 12.1536L122.597 10.9177C122.597 10.9177 122.103 10.7803 121.258 10.7803C120.2 10.7803 119.848 11.1923 119.848 12.5656C119.848 14.1449 120.905 14.0076 120.905 14.6256C120.905 15.0376 120.412 15.1062 120.059 15.1062" fill="#DCE5E5"/>
<path d="M147.976 11.6046C147.976 11.6046 147.412 10.9179 146.637 10.9179C145.368 10.9179 144.946 12.4286 144.946 14.2139C144.946 15.3125 144.804 16.4798 146.003 16.4798C146.848 16.4798 147.342 15.9305 147.342 15.9305L147.272 16.4112H148.682L149.739 9.81934L147.976 11.6046ZM147.906 13.3899C147.906 14.1452 147.272 15.1065 146.497 15.1065C146.003 15.1065 145.721 14.6945 145.721 14.0079C145.721 12.9092 146.214 12.2226 146.848 12.2226C147.342 12.2226 147.906 12.5659 147.906 13.3899Z" fill="#DCE5E5"/>
<path d="M109.203 16.3419L110.049 11.398L110.19 16.3419H111.177L113.009 11.398L112.234 16.3419H113.714L114.843 9.75H113.08L111.106 13.8013L111.035 9.75H110.26L107.863 16.3419H109.203Z" fill="#DCE5E5"/>
<path d="M129.577 16.3422H131.057C131.48 14.0762 131.55 12.2223 132.537 12.5656C132.678 11.673 132.89 11.3296 133.031 10.9863C133.031 10.9863 132.961 10.9863 132.749 10.9863C132.114 10.9863 131.621 11.8103 131.621 11.8103L131.762 11.055" fill="#DCE5E5"/>
<path d="M137.895 12.3596C137.895 12.3596 138.53 12.085 139.446 12.085C139.94 12.085 140.363 12.1536 140.363 12.5656C140.363 12.8403 140.293 12.9089 140.293 12.9089C140.293 12.9089 139.869 12.9089 139.658 12.9089C138.459 12.9089 137.12 13.3896 137.12 14.9689C137.12 16.2049 137.966 16.4795 138.459 16.4795C139.446 16.4795 139.869 15.8615 139.94 15.8615L139.869 16.4109H141.138L141.703 12.6343C141.703 11.055 140.293 10.9863 139.729 10.9863L137.895 12.3596ZM140.786 13.9389C140.786 14.1449 139.94 15.2436 139.094 15.2436C138.671 15.2436 138.53 14.9002 138.53 14.6942C138.53 14.3509 138.742 13.8702 139.799 13.8702C140.081 13.9389 140.786 13.9389 140.786 13.9389Z" fill="#DCE5E5"/>
<path d="M141.42 16.3422H142.901C143.324 14.0762 143.395 12.2223 144.382 12.5656C144.522 11.673 144.733 11.3296 144.875 10.9863C144.875 10.9863 144.804 10.9863 144.593 10.9863C143.958 10.9863 143.465 11.8103 143.465 11.8103L143.606 11.055" fill="#DCE5E5"/>
</g>
<defs>
<clipPath id="clip0">
<rect width="326" height="25.9554" fill="white"/>
</clipPath>
</defs>
</svg>
