<svg width="60" height="60" viewBox="0 0 60 60" fill="none" xmlns="http://www.w3.org/2000/svg">
<path d="M54.8276 4.13793H51.7241V1.03448C51.7241 0.455172 51.269 0 50.6897 0C50.1103 0 49.6552 0.455172 49.6552 1.03448V4.13793H41.3793V1.03448C41.3793 0.455172 40.9241 0 40.3448 0C39.7655 0 39.3103 0.455172 39.3103 1.03448V4.13793H31.0345V1.03448C31.0345 0.455172 30.5793 0 30 0C29.4207 0 28.9655 0.455172 28.9655 1.03448V4.13793H20.6897V1.03448C20.6897 0.455172 20.2345 0 19.6552 0C19.0759 0 18.6207 0.455172 18.6207 1.03448V4.13793H10.3448V1.03448C10.3448 0.455172 9.88966 0 9.31034 0C8.73103 0 8.27586 0.455172 8.27586 1.03448V4.13793H5.17241C2.31724 4.13793 0 6.47586 0 9.31034V54.8276C0 57.6828 2.31724 60 5.17241 60H54.8276C57.6828 60 60 57.6828 60 54.8276V9.31034C60 6.47586 57.6828 4.13793 54.8276 4.13793ZM5.17241 6.2069H8.27586V9.31034C8.27586 9.88966 8.73103 10.3448 9.31034 10.3448C9.88966 10.3448 10.3448 9.88966 10.3448 9.31034V6.2069H18.6207V9.31034C18.6207 9.88966 19.0759 10.3448 19.6552 10.3448C20.2345 10.3448 20.6897 9.88966 20.6897 9.31034V6.2069H28.9655V9.31034C28.9655 9.88966 29.4207 10.3448 30 10.3448C30.5793 10.3448 31.0345 9.88966 31.0345 9.31034V6.2069H39.3103V9.31034C39.3103 9.88966 39.7655 10.3448 40.3448 10.3448C40.9241 10.3448 41.3793 9.88966 41.3793 9.31034V6.2069H49.6552V9.31034C49.6552 9.88966 50.1103 10.3448 50.6897 10.3448C51.269 10.3448 51.7241 9.88966 51.7241 9.31034V6.2069H54.8276C56.5448 6.2069 57.931 7.5931 57.931 9.31034V18.6207H2.06897V9.31034C2.06897 7.61379 3.45517 6.2069 5.17241 6.2069ZM54.8276 57.931H5.17241C3.45517 57.931 2.06897 56.5448 2.06897 54.8276V20.6897H57.931V54.8276C57.931 56.5448 56.5448 57.931 54.8276 57.931Z" fill="#393186"/>
<path d="M20.6896 51.7237C24.1034 51.7237 26.8965 48.9306 26.8965 45.5168V31.034C26.8965 27.6203 24.1034 24.8271 20.6896 24.8271C17.2758 24.8271 14.4827 27.6203 14.4827 31.034V45.5168C14.4827 48.9513 17.2758 51.7237 20.6896 51.7237ZM16.5517 31.034C16.5517 28.7582 18.4138 26.8961 20.6896 26.8961C22.9655 26.8961 24.8276 28.7582 24.8276 31.034V45.5168C24.8276 47.7927 22.9655 49.6547 20.6896 49.6547C18.4138 49.6547 16.5517 47.7927 16.5517 45.5168V31.034Z" fill="#393186"/>
<path d="M34.1379 49.6549C33.5586 49.6549 33.1035 50.1101 33.1035 50.6894C33.1035 51.2687 33.5586 51.7239 34.1379 51.7239H44.4828C45.0621 51.7239 45.5172 51.2687 45.5172 50.6894C45.5172 50.1101 45.0621 49.6549 44.4828 49.6549H41.3793V25.8618C41.3793 25.7997 41.3793 25.717 41.3586 25.6549C41.3586 25.6342 41.3379 25.5928 41.3379 25.5722C41.3379 25.5308 41.3172 25.5101 41.2966 25.4687C41.2759 25.4273 41.2552 25.4066 41.2345 25.3653C41.2138 25.3446 41.2138 25.3032 41.1931 25.2825C41.1104 25.1791 41.0276 25.0756 40.9035 24.9928C40.8828 24.9722 40.8414 24.9722 40.8207 24.9515C40.7793 24.9308 40.7586 24.9101 40.7172 24.8894C40.6759 24.8687 40.6552 24.8687 40.6138 24.848C40.5931 24.848 40.5517 24.8273 40.531 24.8273C40.469 24.8066 40.4069 24.8066 40.3448 24.8066C40.2828 24.8066 40.2207 24.8066 40.1586 24.8273C40.1172 24.8273 40.0966 24.848 40.0759 24.848C40.0345 24.848 40.0138 24.8687 39.9724 24.8894C39.931 24.9101 39.9104 24.9308 39.869 24.9515C39.8483 24.9722 39.8069 24.9722 39.7862 24.9928C39.7241 25.0342 39.6828 25.0756 39.6207 25.117L33.4138 31.3239C33 31.7377 33 32.3791 33.4138 32.7928C33.6207 32.9997 33.8897 33.1032 34.1379 33.1032C34.3862 33.1032 34.6759 32.9997 34.8621 32.7928L39.3104 28.3446V49.6549H34.1379Z" fill="#393186"/>
<path d="M54.8276 54.3105H5.17239C4.88274 54.3105 4.65515 54.5381 4.65515 54.8278C4.65515 55.1174 4.88274 55.345 5.17239 55.345H54.8276C55.1172 55.345 55.3448 55.1174 55.3448 54.8278C55.3448 54.5381 55.1172 54.3105 54.8276 54.3105Z" fill="#393186"/>
<path d="M18.6207 31.0341C18.6207 29.8962 19.5517 28.9651 20.6896 28.9651C20.9793 28.9651 21.2069 28.7376 21.2069 28.4479C21.2069 28.1583 20.9793 27.9307 20.6896 27.9307C18.9724 27.9307 17.5862 29.3169 17.5862 31.0341C17.5862 31.3238 17.8138 31.5514 18.1034 31.5514C18.3931 31.5514 18.6207 31.3238 18.6207 31.0341Z" fill="#393186"/>
<path d="M5.17239 16.0345H54.8276C55.1172 16.0345 55.3448 15.8069 55.3448 15.5172C55.3448 15.2276 55.1172 15 54.8276 15H5.17239C4.88274 15 4.65515 15.2276 4.65515 15.5172C4.65515 15.8069 4.88274 16.0345 5.17239 16.0345Z" fill="#393186"/>
</svg>
