<svg width="72" height="66" viewBox="0 0 72 66" fill="none" xmlns="http://www.w3.org/2000/svg">
<path d="M6 33C6 14.7746 20.7746 0 39 0C57.2254 0 72 14.7746 72 33C72 51.2254 57.2254 66 39 66C20.7746 66 6 51.2254 6 33Z" fill="#A3C359"/>
<path d="M26.71 13.4215C26.6842 13.1597 26.5425 12.9233 26.3238 12.7772C17.326 6.9799 6.9259 17.3885 12.7215 26.3795C12.8675 26.5983 13.104 26.74 13.3657 26.7657C13.6254 26.7917 13.8874 26.6989 14.073 26.5127L26.457 14.1286C26.6429 13.9428 26.7358 13.6832 26.71 13.4215ZM13.6404 24.461C10.3341 17.5985 17.5463 10.3906 24.4052 13.6961L13.6404 24.461Z" fill="#393186"/>
<path d="M29.0507 15.5038C28.9046 15.285 28.6682 15.1433 28.4064 15.1176C28.1449 15.0916 27.8851 15.1847 27.6992 15.3707L15.3151 27.7547C14.9257 28.1255 14.994 28.8186 15.4483 29.1062C24.446 34.9034 34.8462 24.4948 29.0507 15.5038ZM20.8861 28.9982C19.6571 28.9982 18.4584 28.7201 17.3668 28.1872L28.1318 17.4224C30.7627 22.6545 26.7473 29.0701 20.8861 28.9982Z" fill="#393186"/>
<path d="M58.354 27.059H56.3381C55.175 27.0993 55.176 28.7759 56.3381 28.8157H58.1879V44.0405H33.7112V28.8157H52.2061C53.3692 28.7754 53.3682 27.0988 52.2061 27.059H40.8801C46.6557 7.79328 24.58 -7.76197 8.4059 4.17072C8.01696 4.4607 7.93662 5.01101 8.22648 5.39995C8.51645 5.78888 9.06665 5.86899 9.4557 5.57936C24.5138 -5.50343 44.8905 9.31001 39.0352 27.0591H33.5451C33.1563 27.0591 32.7996 27.1994 32.523 27.4319C37.5048 18.7509 30.9519 7.5156 20.886 7.6148C13.5377 7.61468 7.55928 13.593 7.55928 20.9414C7.67066 34.1853 24.7428 39.162 31.9937 28.2979C31.9681 28.411 31.9545 28.5288 31.9545 28.6497V36.567C13.0325 49.2007 -8.05991 25.6497 6.56792 8.22906C6.8901 7.86647 6.85742 7.31124 6.49472 6.98906C6.1319 6.66676 5.57679 6.69955 5.25472 7.06226C-5.61013 19.1011 1.36738 38.7427 17.0799 41.4977V52.2524C17.1202 53.4154 18.7967 53.4145 18.8366 52.2524V41.7452C20.5746 41.9165 22.3871 41.8659 24.1067 41.6V58.2432H18.8366V56.3243C18.7963 55.1612 17.1198 55.1622 17.0799 56.3243V59.1215C17.0799 59.6066 17.4732 59.9999 17.9583 59.9999H24.9851C25.4701 59.9999 25.8634 59.6066 25.8634 59.1215V41.2517C28.0112 40.7285 30.0613 39.8642 31.9545 38.6783V44.2067C31.9545 45.0837 32.6681 45.7973 33.5451 45.7973H43.0803V59.1216C43.0803 59.6067 43.4734 60 43.9586 60H47.9405C48.4257 60 48.8188 59.6067 48.8188 59.1216V45.7972H58.354C59.231 45.7972 59.9446 45.0836 59.9446 44.2065V28.6497C59.9446 27.7726 59.231 27.059 58.354 27.059ZM20.8861 32.5115C14.5063 32.5115 9.31598 27.3211 9.31598 20.9414C9.95156 5.59213 31.823 5.59658 32.4562 20.9415C32.4562 27.3211 27.2658 32.5115 20.8861 32.5115ZM47.0621 58.2432H44.837V45.7972H47.0621V58.2432Z" fill="#393186"/>
<path d="M50.5591 33.077L45.8099 38.7806L41.8954 35.8304C41.508 35.5384 40.9572 35.6159 40.6654 36.0032C40.3734 36.3906 40.4507 36.9414 40.8382 37.2332L45.4209 40.687C45.7924 40.9677 46.3232 40.9094 46.6245 40.5477L51.9091 34.201C52.2194 33.8283 52.169 33.2743 51.7961 32.964C51.4235 32.6539 50.8696 32.7042 50.5591 33.077Z" fill="#393186"/>
</svg>
