<svg width="60" height="60" viewBox="0 0 60 60" fill="none" xmlns="http://www.w3.org/2000/svg">
<path d="M30.03 31C29.478 31 29.03 30.552 29.03 30V15C29.03 14.448 29.478 14 30.03 14C30.582 14 31.03 14.448 31.03 15V30C31.03 30.552 30.582 31 30.03 31Z" fill="#393186"/>
<path d="M48.4579 39.375H43.7675C43.2839 39.375 42.8917 39.7671 42.8917 40.2508V46.8795H41.8914C41.4077 46.8795 41.0156 47.2716 41.0156 47.7553C41.0156 48.2389 41.4077 48.6311 41.8914 48.6311H42.8917V50.6318H41.8914C41.4077 50.6318 41.0156 51.0239 41.0156 51.5076C41.0156 51.9912 41.4077 52.3833 41.8914 52.3833H42.8917V54.3217C42.8917 54.8054 43.2839 55.1975 43.7675 55.1975C44.2512 55.1975 44.6433 54.8054 44.6433 54.3217V52.3833H48.4579C48.9415 52.3833 49.3337 51.9912 49.3337 51.5076C49.3337 51.0239 48.9415 50.6318 48.4579 50.6318H44.6433V48.6311H48.4579C51.0098 48.6311 53.0859 46.5549 53.0859 44.003C53.0859 41.388 50.9558 39.375 48.4579 39.375ZM48.4579 46.8795H44.6433V41.1266H48.4579C50.0344 41.1266 51.3344 42.3982 51.3344 44.0031C51.3343 45.5892 50.044 46.8795 48.4579 46.8795Z" fill="#393186"/>
<path d="M23.03 38.0003C22.774 38.0003 22.518 37.9023 22.323 37.7073C21.932 37.3163 21.932 36.6843 22.323 36.2933L29.323 29.2933C29.713 28.9022 30.347 28.9022 30.737 29.2933C31.128 29.6843 31.128 30.3163 30.737 30.7073L23.737 37.7073C23.542 37.9023 23.286 38.0003 23.03 38.0003Z" fill="#393186"/>
<path d="M30 12C29.448 12 29 11.552 29 11V9C29 8.448 29.448 8 30 8C30.552 8 31 8.448 31 9V11C31 11.552 30.552 12 30 12Z" fill="#393186"/>
<path d="M30 52C29.448 52 29 51.552 29 51V49C29 48.448 29.448 48 30 48C30.552 48 31 48.448 31 49V51C31 51.552 30.552 52 30 52Z" fill="#393186"/>
<path d="M51 31H49C48.448 31 48 30.552 48 30C48 29.448 48.448 29 49 29H51C51.552 29 52 29.448 52 30C52 30.552 51.552 31 51 31Z" fill="#393186"/>
<path d="M11 31H9C8.448 31 8 30.552 8 30C8 29.448 8.448 29 9 29H11C11.552 29 12 29.448 12 30C12 30.552 11.552 31 11 31Z" fill="#393186"/>
<path d="M43.435 17.5646C43.179 17.5646 42.923 17.4666 42.728 17.2716C42.337 16.8806 42.337 16.2486 42.728 15.8576L44.142 14.4436C44.532 14.0526 45.166 14.0526 45.556 14.4436C45.947 14.8346 45.947 15.4666 45.556 15.8576L44.142 17.2716C43.947 17.4666 43.691 17.5646 43.435 17.5646Z" fill="#393186"/>
<path d="M15.151 45.8488C14.895 45.8488 14.639 45.7508 14.444 45.5558C14.053 45.1648 14.053 44.5328 14.444 44.1418L15.858 42.7278C16.248 42.3368 16.882 42.3368 17.272 42.7278C17.663 43.1188 17.663 43.7508 17.272 44.1418L15.858 45.5558C15.663 45.7508 15.407 45.8488 15.151 45.8488Z" fill="#393186"/>
<path d="M16.565 17.5646C16.309 17.5646 16.053 17.4666 15.858 17.2716L14.444 15.8576C14.053 15.4666 14.053 14.8346 14.444 14.4436C14.834 14.0526 15.468 14.0526 15.858 14.4436L17.272 15.8576C17.663 16.2486 17.663 16.8806 17.272 17.2716C17.077 17.4666 16.821 17.5646 16.565 17.5646Z" fill="#393186"/>
<path d="M47 60C39.832 60 34 54.168 34 47C34 39.832 39.832 34 47 34C54.168 34 60 39.832 60 47C60 54.168 54.168 60 47 60ZM47 36C40.935 36 36 40.935 36 47C36 53.065 40.935 58 47 58C53.065 58 58 53.065 58 47C58 40.935 53.065 36 47 36Z" fill="#393186"/>
<path d="M30 60C13.458 60 0 46.542 0 30C0 13.458 13.458 0 30 0C46.542 0 60 13.458 60 30C60 33.715 59.321 37.354 57.982 40.815C57.847 41.165 57.527 41.41 57.154 41.449C56.78 41.485 56.417 41.315 56.212 41.001C54.168 37.87 50.724 36.001 47 36.001C40.935 36.001 36 40.936 36 47.001C36 50.726 37.869 54.169 41.001 56.213C41.315 56.418 41.488 56.782 41.449 57.155C41.41 57.528 41.165 57.848 40.815 57.983C37.354 59.321 33.715 60 30 60ZM30 2C14.561 2 2 14.561 2 30C2 45.439 14.561 58 30 58C32.858 58 35.667 57.57 38.375 56.719C35.607 54.269 34 50.755 34 47C34 39.832 39.832 34 47 34C50.756 34 54.269 35.606 56.719 38.375C57.57 35.667 58 32.858 58 30C58 14.561 45.439 2 30 2Z" fill="#393186"/>
<path d="M30 56C15.664 56 4 44.336 4 30C4 15.664 15.664 4 30 4C44.336 4 56 15.664 56 30C56 32.545 55.627 35.071 54.891 37.506C54.798 37.814 54.562 38.059 54.258 38.163C53.954 38.268 53.617 38.219 53.355 38.032C51.482 36.703 49.285 36 47 36C40.935 36 36 40.935 36 47C36 49.285 36.703 51.482 38.032 53.354C38.219 53.617 38.267 53.953 38.163 54.257C38.059 54.562 37.814 54.798 37.506 54.89C35.071 55.627 32.545 56 30 56ZM30 6C16.766 6 6 16.767 6 30C6 43.233 16.766 54 30 54C31.907 54 33.801 53.773 35.65 53.324C34.567 51.393 34 49.232 34 47C34 39.832 39.832 34 47 34C49.232 34 51.393 34.567 53.324 35.649C53.773 33.801 54 31.907 54 30C54 16.767 43.234 6 30 6Z" fill="#393186"/>
</svg>
