<svg width="20" height="25" viewBox="0 0 20 25" fill="none" xmlns="http://www.w3.org/2000/svg">
<path d="M19.2825 5.17043L14.7825 0.670162C14.641 0.529763 14.4494 0.451524 14.25 0.452649H2.25C1.00734 0.452649 0 1.46005 0 2.70279V22.204C0 23.4467 1.00734 24.4541 2.25 24.4541H17.25C18.4926 24.4541 19.5 23.4467 19.5 22.204V5.70297C19.5012 5.50359 19.4229 5.31201 19.2825 5.17043ZM18 22.204C18 22.6182 17.6642 22.954 17.25 22.954H2.25C1.83576 22.954 1.5 22.6182 1.5 22.204V2.70279C1.5 2.28853 1.83576 1.95274 2.25 1.95274H13.5V4.95292C13.5 5.78139 14.1716 6.45301 15 6.45301H18V22.204Z" fill="#A3C359"/>
<path d="M6 8.70215C4.75734 8.70215 3.75 9.70949 3.75 10.9521C3.75 12.1948 4.75734 13.2021 6 13.2021C7.24266 13.2021 8.25 12.1948 8.25 10.9521C8.25 9.70954 7.24266 8.70215 6 8.70215ZM6 11.7021C5.58577 11.7021 5.25 11.3664 5.25 10.9521C5.25 10.5379 5.58577 10.2021 6 10.2021C6.41423 10.2021 6.75 10.5379 6.75 10.9521C6.75 11.3664 6.41423 11.7021 6 11.7021Z" fill="#A3C359"/>
<path d="M6 16.2021C4.75734 16.2021 3.75 17.2094 3.75 18.4519C3.75 19.6944 4.75734 20.7017 6 20.7017C7.24266 20.7017 8.25 19.6944 8.25 18.4519C8.25 17.2094 7.24266 16.2021 6 16.2021ZM6 19.2018C5.58577 19.2018 5.25 18.8661 5.25 18.4519C5.25 18.0377 5.58577 17.702 6 17.702C6.41423 17.702 6.75 18.0377 6.75 18.4519C6.75 18.8661 6.41423 19.2018 6 19.2018Z" fill="#A3C359"/>
<path d="M15.75 8.70215H9.75V10.2017H15.75V8.70215Z" fill="#A3C359"/>
<path d="M12.75 11.7021H9.75V13.2012H12.75V11.7021Z" fill="#A3C359"/>
<path d="M15.75 16.2021H9.75V17.7012H15.75V16.2021Z" fill="#A3C359"/>
<path d="M12.75 19.2017H9.75V20.7007H12.75V19.2017Z" fill="#A3C359"/>
</svg>
