<svg width="24" height="22" viewBox="0 0 24 22" fill="none" xmlns="http://www.w3.org/2000/svg">
<path d="M23.708 0.48871C23.5247 0.356566 23.289 0.320612 23.0745 0.392052C20.6193 1.21046 18.8678 3.31323 18.4639 5.80685C16.6972 4.0752 14.3594 3.16852 12 3.16852C10.2129 3.16852 8.49703 3.67192 7.03125 4.60752C7.03125 4.24972 7.03125 1.41953 7.03125 1.0591C7.03125 0.670777 6.71644 0.355957 6.32812 0.355957C5.93981 0.355957 5.625 0.670777 5.625 1.0591V3.87166C5.625 4.25938 5.30958 4.5748 4.92188 4.5748H4.21875V1.0591C4.21875 0.670777 3.90394 0.355957 3.51562 0.355957C3.12731 0.355957 2.8125 0.670777 2.8125 1.0591V4.5748H2.10938C1.72167 4.5748 1.40625 4.25938 1.40625 3.87166C1.40625 3.53139 1.40625 1.40162 1.40625 1.0591C1.40625 0.670777 1.09144 0.355957 0.703125 0.355957C0.314812 0.355957 0 0.670777 0 1.0591V5.27795C0 6.38778 0.529969 7.43129 1.40625 8.09051V19.3408C1.40625 20.5039 2.35252 21.4502 3.51562 21.4502C4.67873 21.4502 5.625 20.5039 5.625 19.3408V18.8977C7.37358 20.5661 9.66802 21.4502 12 21.4502C15.0931 21.4502 18.0634 19.8793 19.7812 17.1668V19.3408C19.7812 20.5039 20.7275 21.4502 21.8906 21.4502C23.0537 21.4502 24 20.5039 24 19.3408V1.0591C24 0.833062 23.8914 0.620854 23.708 0.48871ZM3.51562 20.0439C3.12792 20.0439 2.8125 19.7285 2.8125 19.3408V7.71424C2.8125 7.46326 2.67872 7.23127 2.46145 7.1056C1.99294 6.83456 1.65323 6.39538 1.49906 5.89071C1.69237 5.94926 1.89717 5.98109 2.10938 5.98109H4.92188C5.13408 5.98109 5.33888 5.94926 5.53223 5.89071C5.37806 6.39538 5.03836 6.83456 4.56984 7.1056C4.35253 7.23127 4.21875 7.46326 4.21875 7.71424V19.3408C4.21875 19.7285 3.90333 20.0439 3.51562 20.0439ZM12 20.0439C9.44423 20.0439 7.07705 18.8189 5.625 16.7568V8.09051C6.15305 7.69324 6.55509 7.15636 6.79144 6.5496C8.19633 5.29281 10.085 4.5748 12 4.5748C14.5558 4.5748 16.923 5.79986 18.375 7.86194V13.7156C18.375 14.104 18.6898 14.4183 19.0781 14.4183H19.4885C18.5546 17.6771 15.4736 20.0439 12 20.0439ZM22.5938 19.3408C22.5938 19.7285 22.2783 20.0439 21.8906 20.0439C21.5029 20.0439 21.1875 19.7285 21.1875 19.3408V13.7156C21.1875 13.3273 20.8727 13.0125 20.4844 13.0125H19.7812C19.7812 12.0698 19.7812 7.70092 19.7812 6.91242C19.7812 4.89797 20.8788 3.08265 22.5938 2.13237V19.3408Z" fill="#A3C359"/>
<path d="M12 7.38721C9.26025 7.38721 7.03125 9.59516 7.03125 12.3091C7.03125 15.023 9.26025 17.231 12 17.231C14.7397 17.231 16.9688 15.023 16.9688 12.3091C16.9688 9.59516 14.7397 7.38721 12 7.38721ZM12 15.8247C10.0357 15.8247 8.4375 14.2476 8.4375 12.3091C8.4375 10.3706 10.0357 8.79346 12 8.79346C13.9643 8.79346 15.5625 10.3706 15.5625 12.3091C15.5625 14.2476 13.9643 15.8247 12 15.8247Z" fill="#A3C359"/>
</svg>
