<svg width="104" height="52" viewBox="0 0 104 52" fill="none" xmlns="http://www.w3.org/2000/svg">
<path fill-rule="evenodd" clip-rule="evenodd" d="M51.8628 0.476562C80.5008 0.476562 103.726 10.1934 103.726 22.1752C103.726 34.1568 80.5009 43.8736 51.8628 43.8736C23.2246 43.8736 0 34.1568 0 22.1752C0 10.1934 23.2246 0.476562 51.8628 0.476562ZM65.6202 16.1561L70.8712 21.802H77.7236L70.8738 16.1561H76.3626L85.1021 21.802H102.065C101.562 10.9891 79.2756 2.28125 51.8629 2.28125C24.4499 2.28125 2.1632 10.9891 1.66043 21.802H17.5145L26.2539 16.1561H31.7428L24.893 21.802H31.7455L36.9965 16.1561H42.1324L39.3708 21.802H43.19L48.6407 16.1561H53.8552L59.3437 21.802H63.246L60.4842 16.1561H65.6203H65.6202ZM71.5927 22.578L76.9508 28.339H66.4435L63.6254 22.578H60.0981L65.6984 28.339H55.9587L52.3136 22.578H45.0582L39.7015 28.339H36.8787L42.4406 22.578H38.9911L36.173 28.339H25.6658L31.0236 22.578H23.9514L16.9619 28.339H7.39553L16.3132 22.578H1.66131C2.20347 33.3772 24.4748 42.0691 51.8628 42.0691C79.2506 42.0691 101.522 33.3772 102.064 22.578H86.3033L95.2208 28.339H85.6545L78.6651 22.578H71.5927H71.5927ZM51.8227 21.802L49.3757 17.9347L45.7797 21.802H51.8227Z" fill="white"/>
<path d="M7.21791 37.4404L5.83217 38.2936L5.70517 39.9393L5.16222 39.6155L5.15198 37.888L6.67497 37.1166L7.21792 37.4404L7.21791 37.4404ZM8.17982 38.0141L6.79685 38.8689L6.66709 40.5131L6.12413 40.1893L6.11468 38.4621L7.63687 37.6903L8.17982 38.0142L8.17982 38.0141ZM7.20294 41.0451L9.48926 36.9512L10.2314 37.3595L9.33179 38.9704L10.7844 39.7695L11.684 38.1587L12.4252 38.5665L10.1389 42.6604L9.39772 42.2526L10.3975 40.4625L8.94486 39.6634L7.94513 41.4534L7.20294 41.0451ZM13.0296 42.6302L13.7014 43.0905C13.4723 43.3483 13.2219 43.5108 12.9482 43.5771C12.6748 43.6448 12.3856 43.61 12.0801 43.475C11.597 43.2615 11.3184 42.9284 11.2442 42.4733C11.1876 42.1108 11.2555 41.7137 11.4479 41.2844C11.6783 40.7708 11.9794 40.4218 12.3508 40.2376C12.7216 40.0531 13.0913 40.0423 13.4592 40.2049C13.8728 40.3877 14.1302 40.6841 14.233 41.0945C14.3347 41.5045 14.2401 42.021 13.9484 42.6449L12.106 41.8308C12.0024 42.076 11.9765 42.2912 12.0297 42.4757C12.0824 42.6612 12.194 42.7917 12.3628 42.8664C12.478 42.9172 12.5901 42.9249 12.6999 42.89C12.8103 42.854 12.9206 42.7681 13.0296 42.6302H13.0296ZM13.443 41.8202C13.5444 41.58 13.5707 41.3757 13.5216 41.2059C13.4725 41.0365 13.3726 40.9182 13.2225 40.8519C13.0616 40.7808 12.9001 40.7881 12.7371 40.8725C12.5745 40.9556 12.4433 41.11 12.3447 41.3349L13.443 41.8202ZM14.7108 40.8772L17.2967 41.8113L17.0471 42.4924L16.132 42.1619L15.2136 44.6668L14.4576 44.3937L15.376 41.8888L14.4612 41.5582L14.7108 40.8772H14.7108ZM21.7819 46.7693L20.8993 46.5015L20.8622 45.3779L19.2571 44.8909L18.6127 45.8076L17.7527 45.5466L20.6954 41.5449L21.5526 41.8051L21.7819 46.7693V46.7693ZM20.8343 44.5456L20.7927 42.7165L19.7388 44.213L20.8343 44.5456V44.5456ZM23.5514 43.7179L26.1665 44.3651L25.3401 47.6548L24.5623 47.4624L25.2111 44.879L24.1469 44.6157L23.7759 46.0928C23.6813 46.4695 23.5764 46.723 23.4603 46.8561C23.3446 46.988 23.2332 47.066 23.1265 47.0902C23.0206 47.1145 22.8628 47.1013 22.6532 47.0494C22.5288 47.0187 22.3696 46.9591 22.1749 46.8715L22.3358 46.2308C22.353 46.2349 22.3963 46.2468 22.4655 46.2684C22.5455 46.295 22.6074 46.3137 22.6519 46.3246C22.7571 46.3507 22.8321 46.3288 22.8754 46.2564C22.9196 46.1854 22.9851 45.9725 23.0739 45.6192L23.5514 43.7179L23.5514 43.7179ZM26.9208 44.4878L27.7029 44.6671L27.3888 46.0167C27.5222 46.0304 27.625 46.0071 27.6963 45.9462C27.7663 45.8862 27.8691 45.742 28.0022 45.5152C28.178 45.2121 28.337 45.0293 28.4772 44.9653C28.6175 44.9012 28.7844 44.8913 28.9778 44.9356C29.0367 44.9492 29.1393 44.9782 29.2836 45.0226L29.1518 45.6019C28.9451 45.5546 28.8078 45.5455 28.7404 45.5758C28.6717 45.6083 28.5782 45.73 28.4588 45.9408C28.2966 46.2248 28.1214 46.3825 27.9347 46.4135C28.1633 46.5476 28.3173 46.8345 28.3951 47.2763C28.3987 47.2995 28.4043 47.3231 28.4104 47.3492L28.6365 48.3606L27.7936 48.1674L27.6251 47.1232C27.59 46.9118 27.5493 46.7715 27.504 46.7029C27.4577 46.6354 27.3774 46.5878 27.2622 46.5614L26.9344 47.9706L26.1524 47.7913L26.9207 44.4878L26.9208 44.4878ZM29.1386 46.6258C29.1958 46.3336 29.3166 46.0627 29.4988 45.8136C29.6819 45.5658 29.906 45.3916 30.1711 45.294C30.4365 45.1953 30.7156 45.1735 31.0082 45.23C31.4594 45.3171 31.7976 45.5522 32.0223 45.9354C32.247 46.3184 32.31 46.7591 32.2122 47.2587C32.1138 47.7615 31.8864 48.1506 31.5307 48.4261C31.1738 48.7015 30.7751 48.7955 30.3328 48.7101C30.0584 48.6572 29.8116 48.5386 29.5902 48.3527C29.3687 48.1667 29.2193 47.928 29.1418 47.6367C29.0654 47.3455 29.0635 47.0088 29.1386 46.6258ZM29.9393 46.829C29.8745 47.1596 29.8953 47.4257 30.0018 47.6283C30.1076 47.8307 30.2641 47.9521 30.4704 47.9918C30.6767 48.0316 30.8668 47.9772 31.0401 47.8286C31.2147 47.6801 31.3346 47.439 31.4 47.1043C31.4637 46.7789 31.443 46.5142 31.3372 46.3116C31.2324 46.1094 31.0768 45.9883 30.8706 45.9484C30.6643 45.9086 30.4734 45.9629 30.2989 46.1114C30.1237 46.2596 30.0038 46.4996 29.9393 46.829H29.9393ZM32.899 45.7085L34.9329 45.9923L34.8312 46.71L33.595 46.5375L33.2214 49.1774L32.4237 49.066L32.899 45.7085H32.899ZM34.851 47.6369C34.8875 47.3416 34.9889 47.063 35.1532 46.8019C35.3183 46.5419 35.5299 46.3526 35.7875 46.2369C36.0453 46.1201 36.3223 46.079 36.618 46.1151C37.074 46.1707 37.4281 46.382 37.6792 46.7486C37.9302 47.1151 38.0241 47.5504 37.9618 48.0556C37.8988 48.5639 37.6992 48.9679 37.3638 49.2673C37.0272 49.5667 36.636 49.6881 36.1888 49.6336C35.9113 49.5997 35.6569 49.4986 35.4227 49.3284C35.1888 49.1582 35.023 48.9304 34.9252 48.6452C34.8286 48.36 34.8031 48.0242 34.851 47.6369ZM35.664 47.7843C35.6226 48.1185 35.662 48.3825 35.7826 48.5773C35.9024 48.7719 36.067 48.8821 36.2756 48.9075C36.4842 48.9329 36.6699 48.8654 36.8325 48.7052C36.9962 48.5451 37.0987 48.2962 37.1406 47.9577C37.1814 47.6288 37.1419 47.3661 37.0222 47.1713C36.9034 46.9768 36.7398 46.8668 36.5312 46.8414C36.3225 46.816 36.1359 46.8834 35.9724 47.0434C35.8078 47.2034 35.7052 47.4511 35.664 47.7843ZM38.8329 46.4259L41.5132 46.7054L41.1563 50.0774L40.3589 49.9942L40.6393 47.3464L39.5486 47.2326L39.3882 48.7466C39.3474 49.1326 39.2791 49.3982 39.1827 49.546C39.0865 49.6928 38.9874 49.7854 38.8851 49.8241C38.7835 49.8628 38.6254 49.8714 38.4105 49.849C38.2831 49.8357 38.117 49.7987 37.912 49.739L37.9815 49.0822C37.9992 49.084 38.0437 49.0896 38.1152 49.1016C38.198 49.1167 38.2619 49.1268 38.3076 49.1315C38.4155 49.1427 38.4866 49.1107 38.5194 49.033C38.5532 48.9565 38.5882 48.7367 38.6266 48.3746L38.8329 46.4259H38.8329ZM42.2058 46.7156L42.9761 46.7825L42.7891 48.9038L44.2089 46.8895L44.9958 46.9578L44.698 50.3354L43.9277 50.2685L44.1181 48.1092L42.6783 50.16L41.9082 50.0932L42.2058 46.7156L42.2058 46.7156ZM46.4027 49.0375L46.4233 48.4537C46.562 48.4585 46.6639 48.4512 46.7271 48.4338C46.7914 48.4153 46.8528 48.3683 46.9111 48.293C46.9706 48.2175 47.002 48.1292 47.0055 48.029C47.0092 47.9234 46.9775 47.823 46.9113 47.7302C46.8441 47.6374 46.7413 47.589 46.6026 47.5842C46.4961 47.5805 46.3994 47.6024 46.3136 47.6505C46.2277 47.6988 46.1474 47.8171 46.0721 48.0064L45.3961 47.8205C45.4758 47.5245 45.6303 47.3064 45.8601 47.1648C46.0911 47.0245 46.3507 46.9583 46.6388 46.9682C47.0052 46.981 47.2851 47.0845 47.4799 47.2787C47.6745 47.4731 47.7669 47.7118 47.757 47.9951C47.7507 48.1715 47.7026 48.3159 47.6115 48.4284C47.5206 48.542 47.3798 48.6451 47.1899 48.7388C47.412 48.814 47.5764 48.9234 47.684 49.0656C47.7905 49.2079 47.8402 49.3818 47.8329 49.5888C47.8235 49.8524 47.7053 50.075 47.4769 50.2579C47.2493 50.441 46.9266 50.5245 46.5113 50.5102C45.7854 50.485 45.353 50.1538 45.213 49.5164L45.9539 49.3917C46.0605 49.7279 46.251 49.9014 46.5236 49.9108C46.674 49.916 46.7968 49.8756 46.8897 49.7904C46.9836 49.7054 47.0332 49.6035 47.0374 49.4837C47.042 49.3519 46.9979 49.2468 46.9066 49.1685C46.8147 49.089 46.6919 49.0475 46.5394 49.0422L46.4027 49.0375V49.0375ZM48.3867 47.0686L49.3838 47.0858L50.0977 49.4614L50.9006 47.1121L51.8945 47.1293L51.8349 50.5193L51.1508 50.5074L51.1899 48.2759L50.409 50.4947L49.7218 50.4827L49.0534 48.2389L49.0143 50.4704L48.327 50.4586L48.3867 47.0686V47.0686ZM52.0654 47.1263L52.9212 47.0968L53.7327 49.4774L54.3583 47.0469L55.1906 47.018L54.2327 50.3162L54.0609 50.9133C53.9975 51.1127 53.9355 51.2665 53.8758 51.3733C53.8149 51.4801 53.7446 51.5665 53.6638 51.6348C53.583 51.7018 53.4833 51.7566 53.3633 51.7967C53.2435 51.8369 53.1074 51.8601 52.9539 51.8654C52.7997 51.8708 52.6476 51.8576 52.4968 51.8268L52.4007 51.1267C52.5278 51.1506 52.6416 51.1598 52.7432 51.1562C52.9299 51.1497 53.0665 51.084 53.152 50.9589C53.2365 50.8337 53.3004 50.6757 53.3417 50.4845L52.0654 47.1264L52.0654 47.1263ZM57.2576 46.9788L58.0297 46.9386L58.142 49.0651L59.2656 46.8743L60.0544 46.8333L60.2331 50.2191L59.461 50.2592L59.3466 48.0945L58.2084 50.3244L57.4363 50.3645L57.2576 46.9788V46.9788ZM62.6977 50.0793L62.2046 45.4242L63.0487 45.3362L63.2426 47.1678L64.8942 46.9956L64.7003 45.1639L65.5431 45.076L66.0361 49.7311L65.1932 49.819L64.9777 47.7835L63.326 47.9558L63.5415 49.9913L62.6977 50.0793L62.6977 50.0793ZM67.1889 47.1917L66.445 47.1468C66.4803 46.8107 66.5858 46.5516 66.7622 46.3675C66.9396 46.1842 67.2227 46.0643 67.6138 46.0098C67.97 45.9601 68.2409 45.9707 68.4285 46.0404C68.6151 46.11 68.7548 46.2117 68.846 46.3464C68.9371 46.4812 69.0103 46.7405 69.0651 47.1269L69.2032 48.1652C69.2449 48.4598 69.2883 48.6761 69.3343 48.8129C69.3792 48.9484 69.449 49.0929 69.5414 49.2429L68.7523 49.3529C68.7237 49.2964 68.6851 49.2127 68.6387 49.1013C68.6186 49.0502 68.6041 49.017 68.5959 49.0006C68.4803 49.1674 68.3508 49.2978 68.2064 49.3937C68.0619 49.4889 67.9015 49.5486 67.7253 49.5733C67.4156 49.6164 67.1574 49.5567 66.9529 49.3949C66.7471 49.2321 66.6244 49.0071 66.5838 48.7199C66.557 48.5311 66.5737 48.3559 66.6339 48.1957C66.6943 48.0354 66.7924 47.9062 66.9274 47.807C67.0624 47.7079 67.2647 47.6092 67.5321 47.5113C67.8929 47.3817 68.141 47.2724 68.2747 47.1854L68.2622 47.097C68.2379 46.9253 68.183 46.8097 68.0972 46.747C68.0115 46.6852 67.8638 46.6683 67.6538 46.6976C67.5116 46.7174 67.4056 46.7642 67.3351 46.8379C67.2644 46.9103 67.216 47.0282 67.1889 47.1917L67.1889 47.1917ZM68.3566 47.764C68.2603 47.8158 68.1051 47.8838 67.8909 47.9676C67.6776 48.0513 67.5408 48.1231 67.479 48.1824C67.3874 48.2799 67.3497 48.3907 67.3675 48.5171C67.3851 48.6422 67.442 48.7434 67.5381 48.8224C67.6343 48.9014 67.7462 48.932 67.8749 48.914C68.0191 48.8939 68.1481 48.8221 68.264 48.6992C68.3495 48.6057 68.3984 48.4987 68.4119 48.3781C68.4226 48.2995 68.4118 48.1535 68.3817 47.9409L68.3566 47.764ZM69.5685 45.8633L70.31 45.7467L70.3885 46.2387C70.4572 46.0546 70.5656 45.8974 70.7131 45.7672C70.8604 45.6359 71.0345 45.5544 71.2344 45.523C71.5829 45.4683 71.9038 45.5746 72.1947 45.841C72.4867 46.1074 72.676 46.5135 72.763 47.0582C72.8522 47.6169 72.7988 48.071 72.6041 48.4194C72.4082 48.7679 72.1356 48.9697 71.7872 49.0244C71.621 49.0506 71.4646 49.0377 71.3177 48.9857C71.1717 48.9326 71.0096 48.829 70.8315 48.6737L71.1009 50.3616L70.3062 50.4864L69.5685 45.8633V45.8633ZM70.6135 47.3575C70.6735 47.7332 70.7847 48.0015 70.9474 48.1591C71.1092 48.3179 71.2868 48.3827 71.4798 48.3523C71.6644 48.3232 71.8046 48.2162 71.9009 48.0322C71.9973 47.8483 72.0158 47.5674 71.9559 47.1917C71.8997 46.8397 71.7944 46.5893 71.6407 46.4389C71.4872 46.2888 71.3172 46.2284 71.1309 46.2577C70.9369 46.2882 70.7887 46.3965 70.6872 46.5846C70.5854 46.7716 70.5611 47.0291 70.6135 47.3575ZM72.9043 45.2886L73.6894 45.1231L73.9794 46.4781C74.1062 46.4345 74.1893 46.3703 74.2279 46.2851C74.266 46.2014 74.2978 46.0275 74.3217 45.7663C74.352 45.4177 74.4184 45.1854 74.5182 45.0686C74.618 44.9516 74.765 44.8727 74.9591 44.8317C75.0184 44.8192 75.1238 44.8026 75.2734 44.7822L75.4006 45.3625C75.1931 45.4064 75.0648 45.4556 75.0167 45.5116C74.9683 45.5697 74.9354 45.7192 74.9169 45.9604C74.8908 46.2858 74.7991 46.5022 74.6431 46.6087C74.9073 46.6342 75.1691 46.8298 75.4278 47.1975C75.4408 47.217 75.4559 47.236 75.4726 47.2571L76.1081 48.0789L75.2621 48.2575L74.6647 47.3817C74.5429 47.2048 74.4462 47.0948 74.3761 47.0517C74.3053 47.0098 74.2122 47.0004 74.0966 47.0248L74.3995 48.4395L73.6144 48.6051L72.9043 45.2886ZM75.867 46.4108C75.7995 46.121 75.799 45.8246 75.8632 45.5235C75.929 45.2232 76.0623 44.9735 76.2646 44.7774C76.4664 44.58 76.7126 44.4475 77.0031 44.3809C77.4508 44.2783 77.8564 44.3567 78.2185 44.616C78.5807 44.8751 78.819 45.2523 78.9343 45.7482C79.0504 46.2472 79.002 46.6946 78.7901 47.0899C78.5769 47.4855 78.2512 47.7323 77.8121 47.8329C77.5397 47.8954 77.2658 47.8866 76.9872 47.8062C76.7086 47.7256 76.4743 47.5679 76.2841 47.3331C76.0952 47.0978 75.9554 46.7909 75.867 46.4108ZM76.6817 46.2733C76.7581 46.6014 76.8861 46.836 77.0664 46.9781C77.2461 47.1205 77.4386 47.1681 77.6435 47.1211C77.8482 47.0742 77.9994 46.9478 78.0971 46.742C78.1956 46.5359 78.2063 46.2673 78.1292 45.935C78.0539 45.6121 77.9265 45.3786 77.7468 45.2362C77.5682 45.0937 77.3765 45.0459 77.1717 45.0928C76.967 45.1398 76.8149 45.2665 76.7161 45.4724C76.6167 45.6787 76.6057 45.9462 76.6817 46.2733ZM78.9654 44.0623L79.924 43.7895L81.3065 45.854L81.3823 43.3745L82.3379 43.1024L83.2794 46.3616L82.6216 46.5488L82.0019 44.4033L81.9084 46.7518L81.2479 46.9398L79.9478 44.9879L80.5676 47.1334L79.9069 47.3215L78.9654 44.0623L78.9654 44.0623ZM83.8183 43.773L83.0797 43.8699C83.0496 43.5332 83.1033 43.2589 83.241 43.0448C83.3799 42.8313 83.6347 42.66 84.0081 42.5324C84.3483 42.4161 84.6163 42.3753 84.8138 42.4081C85.0105 42.4411 85.167 42.5144 85.2826 42.6294C85.3979 42.7443 85.5197 42.9851 85.6476 43.3541L85.9827 44.3472C86.0803 44.6285 86.1646 44.8325 86.236 44.958C86.3062 45.0827 86.4025 45.2112 86.5219 45.3409L85.7685 45.5984C85.7297 45.5483 85.6755 45.4734 85.6088 45.373C85.5793 45.3266 85.5584 45.2967 85.5472 45.2822C85.4659 45.4679 85.3638 45.6204 85.2404 45.7419C85.1168 45.8626 84.9711 45.9517 84.8028 46.0091C84.507 46.1102 84.2421 46.1005 84.0102 45.9805C83.7769 45.8595 83.6133 45.6619 83.5182 45.3878C83.4557 45.2074 83.4383 45.0323 83.4666 44.8637C83.4951 44.695 83.5665 44.5495 83.6799 44.4265C83.7935 44.3036 83.973 44.1686 84.2168 44.0218C84.546 43.8262 84.7684 43.6719 84.8831 43.5612L84.8538 43.4767C84.7969 43.3129 84.7209 43.2097 84.6245 43.1644C84.5283 43.1201 84.3803 43.1313 84.1797 43.1998C84.0439 43.2462 83.949 43.3122 83.8938 43.398C83.8385 43.4825 83.8134 43.6075 83.8183 43.773ZM85.0747 44.1135C84.9901 44.1828 84.8508 44.2788 84.6566 44.4016C84.4633 44.5242 84.3429 44.6207 84.2936 44.6905C84.2224 44.8037 84.2067 44.9196 84.2484 45.0402C84.2899 45.1597 84.3652 45.2482 84.4747 45.3075C84.5841 45.367 84.7 45.3757 84.8228 45.3337C84.9604 45.2867 85.0734 45.1918 85.1636 45.0492C85.2295 44.9412 85.257 44.8269 85.247 44.7059C85.2424 44.6268 85.2037 44.4855 85.1333 44.2825L85.0747 44.1135ZM85.8493 41.9813L86.6015 41.6948L87.0495 42.8537L88.1238 42.4444L87.6756 41.2855L88.4302 40.998L89.6544 44.1632L88.8997 44.4508L88.3854 43.121L87.3112 43.5302L87.8254 44.8601L87.0735 45.1465L85.8493 41.9813V41.9813ZM88.9952 40.8489L89.7016 40.5368L90.5742 42.4822L90.8321 40.0371L91.5537 39.7182L92.9431 42.8157L92.2366 43.1277L91.3484 41.1475L91.0908 43.6341L90.3846 43.9463L88.9952 40.8489V40.8489ZM92.0806 39.4889L92.7632 39.1287L93.7704 41.009L93.856 38.552L94.5534 38.184L96.1571 41.1775L95.4742 41.5378L94.449 39.624L94.3669 42.1224L93.6842 42.4826L92.0806 39.4889L92.0806 39.4889ZM97.6315 40.114L97.5215 38.4964L96.1187 37.6151L96.661 37.2918L98.2009 38.0912L98.1737 39.7907L97.6315 40.114V40.114ZM96.6697 40.6877L96.5587 39.0706L95.1569 38.1888L95.6991 37.8655L97.239 38.6649L97.2118 40.3643L96.6697 40.6877Z" fill="white"/>
</svg>
