<svg width="24" height="21" viewBox="0 0 24 21" fill="none" xmlns="http://www.w3.org/2000/svg">
<path d="M20.4844 10.8697H18.1351C17.8154 10.8697 17.5058 10.9133 17.2112 10.9937C16.63 9.85132 15.4435 9.06641 14.0763 9.06641H9.92367C8.55647 9.06641 7.36997 9.85132 6.78881 10.9937C6.4942 10.9133 6.18464 10.8697 5.86491 10.8697H3.51562C1.57711 10.8697 0 12.4466 0 14.385V18.1403C0 19.3033 0.946266 20.2495 2.10938 20.2495H21.8906C23.0537 20.2495 24 19.3033 24 18.1403V14.385C24 12.4466 22.4229 10.8697 20.4844 10.8697ZM6.40805 12.5819V18.8434H2.10938C1.72167 18.8434 1.40625 18.528 1.40625 18.1403V14.3851C1.40625 13.222 2.35252 12.2758 3.51562 12.2758H5.86491C6.05578 12.2758 6.24061 12.3018 6.41658 12.3495C6.41152 12.4264 6.40805 12.5038 6.40805 12.5819ZM16.1857 18.8434H7.8143V12.5818C7.8143 11.4188 8.76056 10.4726 9.92367 10.4726H14.0763C15.2394 10.4726 16.1857 11.4188 16.1857 12.5818V18.8434ZM22.5938 18.1403C22.5938 18.528 22.2783 18.8434 21.8906 18.8434H17.592V12.5818C17.592 12.5037 17.5885 12.4264 17.5834 12.3495C17.7594 12.3018 17.9442 12.2758 18.1351 12.2758H20.4844C21.6475 12.2758 22.5938 13.222 22.5938 14.385V18.1403Z" fill="#A3C359"/>
<path d="M4.69031 4.22998C2.9677 4.22998 1.56628 5.63129 1.56628 7.35376C1.56624 9.07623 2.9677 10.4775 4.69031 10.4775C6.41287 10.4775 7.81433 9.07623 7.81433 7.35376C7.81433 5.63129 6.41291 4.22998 4.69031 4.22998ZM4.69026 9.0714C3.74306 9.0714 2.97248 8.30089 2.97248 7.35376C2.97248 6.40663 3.74306 5.63612 4.69026 5.63612C5.63746 5.63612 6.40804 6.40663 6.40804 7.35376C6.40804 8.30089 5.63746 9.0714 4.69026 9.0714Z" fill="#A3C359"/>
<path d="M11.9999 0.349609C9.69857 0.349609 7.82629 2.22175 7.82629 4.52295C7.82629 6.82415 9.69857 8.69629 11.9999 8.69629C14.3013 8.69629 16.1736 6.82415 16.1736 4.52295C16.1736 2.2218 14.3013 0.349609 11.9999 0.349609ZM11.9999 7.29015C10.474 7.29015 9.23254 6.0488 9.23254 4.52295C9.23254 2.99714 10.474 1.75575 11.9999 1.75575C13.5259 1.75575 14.7673 2.9971 14.7673 4.52295C14.7673 6.0488 13.5259 7.29015 11.9999 7.29015Z" fill="#A3C359"/>
<path d="M19.3097 4.22998C17.5871 4.22998 16.1857 5.63129 16.1857 7.35376C16.1857 9.07623 17.5871 10.4775 19.3097 10.4775C21.0323 10.4775 22.4337 9.07623 22.4337 7.35376C22.4337 5.63129 21.0323 4.22998 19.3097 4.22998ZM19.3097 9.0714C18.3625 9.0714 17.5919 8.30089 17.5919 7.35376C17.592 6.40663 18.3625 5.63612 19.3097 5.63612C20.2569 5.63612 21.0275 6.40663 21.0275 7.35376C21.0275 8.30089 20.2569 9.0714 19.3097 9.0714Z" fill="#A3C359"/>
</svg>
