<svg width="104" height="44" viewBox="0 0 104 44" fill="none" xmlns="http://www.w3.org/2000/svg">
<path fill-rule="evenodd" clip-rule="evenodd" d="M52.0001 0C80.7138 0 104 9.76151 104 21.7983C104 33.835 80.714 43.5965 52.0001 43.5965C23.286 43.5965 0 33.835 0 21.7983C0 9.7615 23.286 0 52.0001 0ZM65.7938 15.7516L71.0587 21.4235H77.9292L71.0613 15.7516H76.5647L85.3273 21.4235H102.335C101.831 10.5608 79.4854 1.81298 52.0002 1.81298C24.5146 1.81298 2.16893 10.5609 1.66482 21.4235H17.5609L26.3233 15.7516H31.8268L24.9588 21.4235H31.8295L37.0944 15.7516H42.2439L39.475 21.4235H43.3042L48.7694 15.7516H53.9977L59.5007 21.4235H63.4133L60.6443 15.7516H65.7939H65.7938ZM71.7822 22.2031L77.1544 27.9905H66.6193L63.7938 22.2031H60.2571L65.8723 27.9905H56.1068L52.452 22.2031H45.1775L39.8066 27.9905H36.9763L42.5529 22.2031H39.0943L36.2687 27.9905H25.7337L31.1057 22.2031H24.0148L17.0068 27.9905H7.4151L16.3564 22.2031H1.66571C2.2093 33.0518 24.5395 41.7837 52.0001 41.7837C79.4603 41.7837 101.791 33.0519 102.334 22.2031H86.5316L95.4728 27.9905H85.8811L78.8732 22.2031H71.7821H71.7822ZM51.9598 21.4235L49.5064 17.5384L45.9009 21.4235H51.9598Z" fill="#393186"/>
</svg>
