<svg width="24" height="24" viewBox="0 0 24 24" fill="none" xmlns="http://www.w3.org/2000/svg">
<path d="M23.5969 10.4813L21.5694 8.63387V2.50788C21.5694 2.11811 21.2534 1.80206 20.8636 1.80206H15.9832C15.5935 1.80206 15.2774 2.11806 15.2774 2.50788V2.90043L12.8289 0.669242C12.3562 0.238492 11.6435 0.238539 11.1711 0.669195L0.403024 10.4814C0.0244616 10.8264 -0.100648 11.358 0.084321 11.8356C0.269337 12.3132 0.719805 12.6218 1.23201 12.6218H2.9518V22.4528C2.9518 22.8426 3.26779 23.1586 3.6576 23.1586H9.55977C9.94954 23.1586 10.2656 22.8426 10.2656 22.4528V16.4837H13.7344V22.4529C13.7344 22.8426 14.0503 23.1587 14.4402 23.1587H20.3421C20.7319 23.1587 21.0479 22.8427 21.0478 22.4529V12.6219H22.768C23.2802 12.6219 23.7307 12.3132 23.9157 11.8356C24.1006 11.358 23.9756 10.8264 23.5969 10.4813ZM20.3421 11.2102C19.9523 11.2102 19.6363 11.5262 19.6363 11.916V21.747H15.146V15.7779C15.146 15.3881 14.83 15.0721 14.4402 15.0721H9.55977C9.17001 15.0721 8.85397 15.3881 8.85397 15.7779V21.747H4.36335V11.916C4.36335 11.5262 4.04737 11.2102 3.65755 11.2102H1.69898L12 1.82363L15.508 5.02019C15.7146 5.20845 16.0129 5.25697 16.2685 5.14413C16.5241 5.03116 16.6891 4.77793 16.6891 4.49846V3.21371H20.1579V8.9456C20.1579 9.14421 20.2415 9.33355 20.3884 9.46733L22.301 11.2102H20.3421Z" fill="#A3C359"/>
</svg>
