<svg width="27" height="24" viewBox="0 0 27 24" fill="none" xmlns="http://www.w3.org/2000/svg">
<path d="M25.9974 11.6634L14.8475 0.704855C13.8914 -0.234969 12.3357 -0.234917 11.3797 0.704804L0.229798 11.6634C-0.0728897 11.9609 -0.0770901 12.4474 0.220373 12.75C0.517836 13.0526 1.00432 13.0569 1.30696 12.7595L2.17465 11.9066V20.6557C2.17465 22.4997 3.67493 24 5.51898 24H20.7082C22.5522 24 24.0525 22.4997 24.0525 20.6557V11.9066L24.9202 12.7595C25.0698 12.9065 25.2643 12.9798 25.4587 12.9798C25.6576 12.9798 25.8564 12.9031 26.0068 12.7501C26.3043 12.4474 26.3001 11.9609 25.9974 11.6634ZM22.5157 20.6557C22.5157 21.6524 21.7048 22.4633 20.7081 22.4633H5.51898C4.52229 22.4633 3.7114 21.6524 3.7114 20.6557V10.3963L12.4569 1.80081C12.5474 1.71183 12.6521 1.64509 12.764 1.60057C13.0715 1.47825 13.4326 1.52409 13.6999 1.73822C13.7241 1.75768 13.7476 1.77853 13.7703 1.80081L22.5158 10.3962V20.6557H22.5157Z" fill="#A3C359"/>
<path d="M10.8048 8.97541V11.4481H8.332C7.90766 11.4481 7.56363 11.7921 7.56363 12.2165V15.2831C7.56363 15.7074 7.90766 16.0515 8.332 16.0515H10.8048V18.5241C10.8048 18.9484 11.1489 19.2925 11.5732 19.2925H14.6398C15.0642 19.2925 15.4082 18.9484 15.4082 18.5241V16.0515H17.8806C18.305 16.0515 18.649 15.7074 18.649 15.2831V12.2165C18.649 11.7921 18.305 11.4481 17.8806 11.4481H15.4082V8.97541C15.4082 8.55106 15.0642 8.20703 14.6398 8.20703H11.5732C11.1489 8.20703 10.8048 8.55106 10.8048 8.97541ZM12.3416 12.2165V9.74378H13.8715V12.2165C13.8715 12.6408 14.2155 12.9848 14.6398 12.9848H17.1123V14.5147H14.6398C14.2155 14.5147 13.8715 14.8587 13.8715 15.2831V17.7557H12.3416V15.2831C12.3416 14.8587 11.9976 14.5147 11.5732 14.5147H9.10038V12.9848H11.5732C11.9976 12.9848 12.3416 12.6408 12.3416 12.2165Z" fill="#A3C359"/>
</svg>
