<svg width="18" height="25" viewBox="0 0 18 25" fill="none" xmlns="http://www.w3.org/2000/svg">
<path d="M8.69189 0.34375C3.89916 0.34375 0 4.24323 0 9.03631C0 14.9847 7.77839 23.7172 8.10957 24.0861C8.42063 24.4326 8.96372 24.4319 9.27422 24.0861C9.6054 23.7172 17.3838 14.9847 17.3838 9.03631C17.3837 4.24323 13.4846 0.34375 8.69189 0.34375ZM8.69189 22.3641C6.07407 19.2543 1.56525 13.1188 1.56525 9.0364C1.56525 5.10636 4.76222 1.90913 8.69189 1.90913C12.6216 1.90913 15.8185 5.10636 15.8185 9.03636C15.8185 13.1189 11.3104 19.2533 8.69189 22.3641Z" fill="#A3C359"/>
<path d="M8.69192 4.6626C6.28057 4.6626 4.31885 6.62423 4.31885 9.0354C4.31885 11.4466 6.28062 13.4082 8.69192 13.4082C11.1032 13.4082 13.0649 11.4466 13.0649 9.0354C13.0649 6.62423 11.1032 4.6626 8.69192 4.6626ZM8.69192 11.8431C7.14363 11.8431 5.8841 10.5836 5.8841 9.0354C5.8841 7.48723 7.14368 6.22774 8.69192 6.22774C10.2402 6.22774 11.4997 7.48723 11.4997 9.0354C11.4997 10.5836 10.2402 11.8431 8.69192 11.8431Z" fill="#A3C359"/>
</svg>
