<svg width="24" height="24" viewBox="0 0 24 24" fill="none" xmlns="http://www.w3.org/2000/svg">
<path d="M16.2118 13.4764C15.6237 13.1284 14.5961 12.2772 13.6386 13.1883C13.4127 13.4182 13.2631 13.5722 13.1664 13.6711C12.2966 13.2591 10.7501 11.766 10.3491 10.8238C11.77 9.53229 11.1123 9.07163 9.71484 6.41773C9.47607 6.00578 9.08899 5.73242 8.61657 5.73242C8.03796 5.73242 7.81183 6.01749 6.98529 6.85385C5.95037 7.90077 5.34301 8.2296 5.73229 10.0036C6.84008 15.0532 14.233 20.1106 16.3266 17.8497C18.0366 16.1514 18.3664 15.9905 18.2662 15.2224C18.1401 14.4576 17.5532 14.2701 16.2118 13.4764ZM15.2961 16.8929C15.1765 17.0257 14.4606 17.0694 13.273 16.5765C11.0209 15.642 8.68487 13.1897 7.7276 11.359C7.42273 10.7758 6.74853 9.04673 7.1228 8.70948C7.27587 8.56429 8.30511 7.51335 8.56842 7.25867C9.26935 8.58718 9.61065 9.20822 9.724 9.46125C9.5224 9.77251 8.87768 10.0162 8.87768 10.7797C9.16131 12.2713 11.1021 14.0993 12.262 14.7795C13.446 15.4738 13.8248 15.0096 14.256 14.5677C14.6411 14.1733 14.6082 14.1973 14.6483 14.1932L16.7662 15.4379C16.5179 15.6975 15.4675 16.7128 15.2961 16.8929Z" fill="#A3C359"/>
<path d="M12 0C5.367 0 0 5.36792 0 12C0 18.633 5.36792 24 12 24C18.633 24 24 18.6321 24 12C24 5.367 18.6321 0 12 0ZM12 22.5938C6.14429 22.5938 1.40625 17.8548 1.40625 12C1.40625 6.14429 6.1452 1.40625 12 1.40625C17.8557 1.40625 22.5938 6.1452 22.5938 12C22.5938 17.8557 17.8548 22.5938 12 22.5938Z" fill="#A3C359"/>
</svg>
