<svg width="63" height="60" viewBox="0 0 63 60" fill="none" xmlns="http://www.w3.org/2000/svg">
<path d="M59.7354 15.869L59.7228 15.8564C59.2064 15.3904 58.4129 15.3904 57.9218 15.8816C57.4306 16.3728 57.4306 17.1662 57.9218 17.6574C59.9872 19.7229 59.9872 23.073 57.9218 25.1385C55.8563 27.204 52.5062 27.204 50.4407 25.1385C50.4155 25.1133 50.4029 25.1007 50.3777 25.0881C48.4885 22.4433 46.0704 20.2266 43.287 18.5768C46.1712 11.7758 42.9848 3.92946 36.1838 1.05793C29.3828 -1.8136 21.5365 1.3602 18.6649 8.16119C18.0856 9.54657 17.733 11.0201 17.6322 12.5189C16.2972 12.141 15.2267 11.9647 14.3954 11.9899C13.0604 12.0025 12.0781 12.8337 11.9269 14.0554C11.8388 14.5969 11.9017 15.3904 12.1914 17.9722L12.4559 20.4408C10.0378 22.4055 8.136 24.6977 6.76321 27.2669L3.11082 27.9848C1.29723 28.35 0 29.9495 0 31.7883V39.8865C0 41.7379 1.29723 43.3248 3.11082 43.6901L6.7758 44.4205C7.49368 45.8311 8.37529 47.1535 9.40803 48.3626C8.04784 51.7379 9.05539 55.6044 11.8765 57.9092C13.5516 59.2694 15.6549 60.0124 17.8085 59.9998C20.2644 59.9998 22.6322 59.0679 24.4332 57.3928L25.3148 56.5616C28.5642 57.0527 31.8891 56.9394 35.1007 56.2593L36.3475 57.4558C38.0729 59.0804 40.3651 59.9872 42.7329 59.9621H42.9974C43.01 59.9621 43.0226 59.9621 43.0351 59.9621C45.5037 59.8991 47.8462 58.8663 49.5591 57.0779C52.2039 54.282 52.5187 50.0754 50.4281 46.7757C52.7958 43.476 54.0427 39.6976 54.0427 35.7934V34.874C54.0427 34.8488 54.0427 34.8236 54.0427 34.7984C53.9293 32.9218 53.4381 30.9823 52.5817 29.0176C55.1636 29.5717 57.8588 28.7783 59.7228 26.9017C62.7706 23.8538 62.7706 18.9168 59.7354 15.869ZM30.9823 2.50629C36.9646 2.4937 41.8261 7.32995 41.8387 13.3123C41.8513 16.9269 40.0503 20.3148 37.0402 22.3299C36.9394 22.4055 36.8387 22.5566 36.7631 22.5566H25.2518C25.2014 22.5566 25.1385 22.481 25.0755 22.4307C22.2166 20.5793 20.403 17.4937 20.1511 14.1058C20.1259 13.8161 20.1259 13.5642 20.1259 13.3375C20.1385 7.36774 24.9873 2.51888 30.9823 2.50629ZM47.9848 45.8437C47.7707 46.0956 47.4432 46.6749 47.8336 47.4558C47.8714 47.5314 47.9092 47.5943 47.9596 47.6573C49.7858 50.0377 49.685 53.2618 47.7203 55.3399C46.4734 56.6371 44.7858 57.4432 42.9596 57.4432H42.7203C40.9949 57.4558 39.3324 56.8134 38.0729 55.6296L36.4357 54.0679C36.146 53.7908 35.7556 53.6397 35.3651 53.6522C35.2644 53.6522 35.1762 53.6648 35.0755 53.69C31.8387 54.4583 28.4886 54.559 25.2014 54.0049C25.1259 53.9923 25.0629 53.9923 24.9873 53.9923C24.5843 53.9797 24.2065 54.1308 23.9168 54.4079L22.6826 55.5792C21.4231 56.7505 19.7984 57.418 18.0856 57.4935C16.4105 57.5817 14.7481 57.0401 13.4383 55.9948C11.3476 54.282 10.7053 51.3475 11.9017 48.9167C12.0906 48.6019 12.141 48.2115 12.0403 47.8462C11.9899 47.6195 11.8891 47.418 11.738 47.2543C10.5541 45.9571 9.55917 44.4835 8.79091 42.8966C8.72794 42.7707 8.65237 42.6573 8.55161 42.5566C8.31232 42.2921 7.99746 42.1283 7.65741 42.0654L3.60201 41.2467C2.97228 41.1208 2.51888 40.5541 2.51888 39.9117V31.7883C2.50629 31.146 2.95969 30.5793 3.60201 30.4533L7.67 29.6347C8.01005 29.5717 8.32491 29.408 8.56421 29.1435C8.66496 29.0427 8.74053 28.942 8.8035 28.816C10.0881 26.2468 12.0025 23.9546 14.4836 22.0402C14.5214 22.0025 14.5592 21.9773 14.5969 21.9395C14.8866 21.6498 15.0377 21.2594 15.0251 20.8564C15.0251 20.806 15.0251 20.7682 15.0126 20.7178L14.6851 17.6952C14.5717 16.7254 14.3828 14.9748 14.408 14.4962C14.4206 14.4962 14.4458 14.4962 14.4584 14.4962C14.9622 14.4836 15.9319 14.5717 17.7204 15.1511C18.0982 17.9471 19.3576 20.5415 21.3098 22.5692H20.1133C19.4206 22.5692 18.8539 23.136 18.8539 23.8286C18.8539 24.5213 19.4206 25.0881 20.1133 25.0881H41.9394C42.6321 25.0881 43.1989 24.5213 43.1989 23.8286C43.1989 23.136 42.6321 22.5692 41.9394 22.5692H40.6296C41.1838 22.0276 41.6749 21.4231 42.0906 20.7682C44.9999 22.5314 47.3928 24.8992 49.0427 27.6196L49.9369 29.345C50.8563 31.2468 51.3853 33.1737 51.5112 34.9369V35.806C51.5112 39.3954 50.2895 42.8588 47.9848 45.8437Z" fill="#393186"/>
<path d="M17.4433 29.4961C15.6549 29.4961 14.2191 30.9445 14.2191 32.7203C14.2191 34.5087 15.6675 35.9444 17.4433 35.9444C19.2191 35.9444 20.6675 34.4961 20.6675 32.7203C20.6801 30.9445 19.2317 29.4961 17.4433 29.4961ZM17.4433 33.4381C17.0529 33.4381 16.738 33.1233 16.738 32.7329C16.738 32.3424 17.0529 32.0276 17.4433 32.0276C17.8337 32.0276 18.1486 32.3424 18.1486 32.7329C18.1612 33.1233 17.8463 33.4381 17.4433 33.4381Z" fill="#393186"/>
<path d="M30.9823 5.70508C26.7632 5.70508 23.3501 9.11817 23.3501 13.3373C23.3627 17.5438 26.7758 20.9569 30.9823 20.9695C35.2015 20.9695 38.6145 17.5564 38.6145 13.3373C38.6145 9.11817 35.2015 5.70508 30.9823 5.70508ZM30.9823 18.4506C28.1612 18.4506 25.869 16.1585 25.869 13.3373C25.869 10.5161 28.1612 8.22396 30.9823 8.22396C33.8035 8.22396 36.0957 10.5161 36.0957 13.3373C36.0957 16.1585 33.8035 18.4506 30.9823 18.4506Z" fill="#393186"/>
</svg>
