<svg width="99" height="15" viewBox="0 0 99 15" fill="none" xmlns="http://www.w3.org/2000/svg">
<path d="M98.5202 0.980432C98.5094 0.704501 98.277 0.489576 98.001 0.500383L93.5045 0.676498C93.2286 0.687305 93.0136 0.919752 93.0244 1.19568C93.0353 1.47161 93.2677 1.68654 93.5436 1.67573L97.5406 1.51919L97.6971 5.51612C97.7079 5.79205 97.9404 6.00698 98.2163 5.99617C98.4922 5.98536 98.7072 5.75291 98.6964 5.47698L98.5202 0.980432ZM1 1C0.660063 1.36666 0.660342 1.36692 0.660676 1.36723C0.660858 1.3674 0.661246 1.36776 0.661611 1.3681C0.662342 1.36877 0.663288 1.36964 0.66445 1.37071C0.666772 1.37284 0.669957 1.37575 0.674006 1.37943C0.682105 1.38679 0.693665 1.39722 0.708714 1.41063C0.738811 1.43744 0.782866 1.47613 0.841107 1.52592C0.957588 1.6255 1.13081 1.76946 1.36261 1.95142C1.8262 2.31536 2.52405 2.83132 3.47079 3.44844C5.36439 4.68275 8.25303 6.32134 12.2535 7.95742C20.2558 11.2302 32.6979 14.4893 50.5105 14.4893V13.4893C32.8231 13.4893 20.51 10.2537 12.632 7.03184C8.69234 5.42061 5.85961 3.81187 4.01686 2.6107C3.09543 2.01008 2.42137 1.51126 1.98009 1.16484C1.75945 0.991632 1.597 0.856519 1.49092 0.765827C1.43787 0.720481 1.39892 0.68624 1.37384 0.663894C1.36129 0.652722 1.35221 0.644523 1.34657 0.639397C1.34375 0.636834 1.34179 0.635039 1.34069 0.634025C1.34014 0.633518 1.3398 0.633206 1.33967 0.63309C1.33961 0.633033 1.33968 0.633094 1.33964 0.633065C1.33976 0.633176 1.33994 0.633336 1 1ZM50.5105 14.4893C68.3229 14.4893 80.2693 11.2302 87.7781 7.95288C91.5318 6.31452 94.1736 4.67282 95.8827 3.43446C96.7372 2.81535 97.3582 2.29725 97.7683 1.93108C97.9733 1.74799 98.1255 1.60291 98.2279 1.50218C98.279 1.45181 98.3177 1.41254 98.3442 1.38515C98.3575 1.37146 98.3677 1.36073 98.3749 1.35308C98.3786 1.34926 98.3814 1.3462 98.3836 1.34392C98.3846 1.34279 98.3855 1.34184 98.3862 1.3411C98.3866 1.34072 98.3869 1.34031 98.3871 1.34012C98.3874 1.33976 98.3877 1.33945 98.0206 1C97.6535 0.660554 97.6537 0.66034 97.6538 0.660175C97.6538 0.660185 97.6539 0.66007 97.6539 0.660091C97.6539 0.660134 97.6537 0.660373 97.6533 0.660808C97.6524 0.661677 97.6509 0.663327 97.6486 0.665745C97.644 0.670581 97.6365 0.67849 97.6259 0.689373C97.6049 0.71114 97.5718 0.744804 97.5263 0.789576C97.4353 0.879118 97.2949 1.0131 97.1022 1.18519C96.7168 1.52936 96.1222 2.02605 95.296 2.62468C93.6438 3.82181 91.0644 5.42742 87.378 7.03638C80.0068 10.2537 68.1981 13.4893 50.5105 13.4893V14.4893Z" fill="#A3C359"/>
</svg>
