<svg width="24" height="29" viewBox="0 0 24 29" fill="none" xmlns="http://www.w3.org/2000/svg">
<path d="M19.3254 21.3784C21.903 21.3784 24 19.2813 24 16.7036C24 15.6433 23.635 14.6048 22.9723 13.7795C22.5157 13.211 21.9302 12.7574 21.2737 12.4552C21.4514 11.8716 21.5411 11.2654 21.5411 10.6443C21.5411 9.15475 21.0071 7.71301 20.0373 6.58473C19.2211 5.63496 18.1401 4.95527 16.9449 4.63005C16.7911 3.55866 16.2953 2.57037 15.5132 1.79667C14.5718 0.865376 13.3242 0.352539 12 0.352539C10.6758 0.352539 9.4281 0.865376 8.48678 1.79661C7.70473 2.57031 7.20893 3.5586 7.0551 4.63C5.85991 4.95521 4.77892 5.63491 3.96266 6.58467C2.99294 7.71296 2.45888 9.15469 2.45888 10.6442C2.45888 11.2653 2.54857 11.8715 2.72632 12.4551C2.06982 12.7573 1.48432 13.2109 1.02774 13.7795C0.364977 14.6048 0 15.6432 0 16.7035C0 19.2812 2.09701 21.3783 4.67457 21.3783H11.1827V26.6294H4.44135V28.2642H19.5586V26.6294H12.8174V21.3783H19.3254V21.3784ZM4.67452 19.7436C2.99834 19.7436 1.63466 18.3798 1.63466 16.7036C1.63466 15.285 2.59805 14.0684 3.97742 13.7448L4.96054 13.5143L4.53017 12.6007C4.2405 11.9857 4.0936 11.3275 4.0936 10.6443C4.0936 9.54552 4.4874 8.48224 5.20237 7.65029C5.91014 6.82679 6.88656 6.27848 7.95179 6.10639L8.63058 5.99675L8.63876 5.3092C8.66055 3.47752 10.1684 1.98734 12 1.98734C13.8316 1.98734 15.3394 3.47752 15.3612 5.30915L15.3694 5.99669L16.0482 6.10633C17.1134 6.27842 18.0898 6.82673 18.7976 7.65024C19.5126 8.48224 19.9063 9.54546 19.9063 10.6442C19.9063 11.3275 19.7594 11.9857 19.4698 12.6006L19.0394 13.5142L20.0225 13.7448C21.4019 14.0684 22.3653 15.285 22.3653 16.7035C22.3653 18.3798 21.0016 19.7435 19.3254 19.7435H12.8174V15.1972L15.811 12.2034L14.655 11.0475L12.8173 12.8853V7.46834H11.1826V9.93684L9.34484 8.09905L8.18894 9.25501L11.1825 12.2488V15.8336L9.34479 13.9958L8.18888 15.1517L11.1825 18.1455V19.7434H4.67452V19.7436Z" fill="#A3C359"/>
</svg>
