<svg width="24" height="22" fill="none" xmlns="http://www.w3.org/2000/svg"><path d="M23.708.489a.703.703 0 00-.633-.097 6.863 6.863 0 00-4.611 5.415A9.234 9.234 0 0012 3.169a9.212 9.212 0 00-4.969 1.439V1.059a.703.703 0 00-1.406 0v2.813a.704.704 0 01-.703.703h-.703V1.059a.703.703 0 00-1.407 0v3.516H2.11a.704.704 0 01-.703-.703V1.059A.703.703 0 000 1.06v4.219A3.53 3.53 0 001.406 8.09v11.25c0 1.163.947 2.11 2.11 2.11a2.112 2.112 0 002.109-2.11v-.443a9.222 9.222 0 0014.156-1.73v2.173c0 1.163.947 2.11 2.11 2.11A2.112 2.112 0 0024 19.34V1.059a.703.703 0 00-.292-.57zM3.516 20.044a.704.704 0 01-.704-.703V7.714a.703.703 0 00-.35-.608 2.119 2.119 0 01-.963-1.215c.193.058.398.09.61.09h2.813c.212 0 .417-.032.61-.09a2.119 2.119 0 01-.962 1.215.703.703 0 00-.351.608v11.627a.704.704 0 01-.703.703zm8.484 0a7.771 7.771 0 01-6.375-3.287V8.09a3.54 3.54 0 001.166-1.541A7.882 7.882 0 0112 4.575a7.771 7.771 0 016.375 3.287v5.854c0 .388.315.702.703.702h.41c-.933 3.26-4.014 5.626-7.488 5.626zm10.594-.703a.704.704 0 01-1.407 0v-5.625a.703.703 0 00-.703-.704h-.703v-6.1a5.46 5.46 0 012.813-4.78v17.209z" fill="#A3C359"/><path d="M12 7.387c-2.74 0-4.969 2.208-4.969 4.922 0 2.714 2.23 4.922 4.969 4.922 2.74 0 4.969-2.208 4.969-4.922 0-2.714-2.23-4.922-4.969-4.922zm0 8.438c-1.964 0-3.563-1.577-3.563-3.516 0-1.938 1.599-3.516 3.563-3.516 1.964 0 3.563 1.578 3.563 3.516 0 1.939-1.599 3.516-3.563 3.516z" fill="#A3C359"/></svg>