<svg width="104" height="44" fill="none" xmlns="http://www.w3.org/2000/svg"><path fill-rule="evenodd" clip-rule="evenodd" d="M52 0c28.714 0 52 9.762 52 21.798 0 12.037-23.286 21.799-52 21.799s-52-9.763-52-21.8C0 9.762 23.286 0 52 0zm13.794 15.752l5.265 5.671h6.87l-6.868-5.671h5.504l8.762 5.671h17.008C101.831 10.562 79.485 1.814 52 1.814S2.17 10.561 1.665 21.423H17.56l8.762-5.671h5.504l-6.868 5.671h6.87l5.265-5.671h5.15l-2.769 5.671h3.83l5.464-5.671h5.229l5.503 5.671h3.912l-2.769-5.671h5.15zm5.988 6.451l5.372 5.788H66.62l-2.825-5.788h-3.537l5.615 5.788h-9.765l-3.655-5.788h-7.274l-5.371 5.788h-2.83l5.576-5.788h-3.459l-2.825 5.788H25.734l5.372-5.788h-7.091l-7.008 5.788H7.415l8.941-5.788H1.666C2.209 33.052 24.539 41.783 52 41.783c27.46 0 49.791-8.731 50.334-19.58H86.532l8.94 5.788h-9.59l-7.009-5.788h-7.09zm-19.822-.78l-2.454-3.885-3.605 3.886h6.059z" fill="#393186"/></svg>