<svg width="24" height="24" fill="none" xmlns="http://www.w3.org/2000/svg"><path d="M23.597 10.481l-2.028-1.847V2.508a.706.706 0 00-.705-.706h-4.88a.706.706 0 00-.707.706V2.9L12.83.67a1.225 1.225 0 00-1.658 0L.403 10.48a1.223 1.223 0 00-.319 1.355c.185.477.636.786 1.148.786h1.72v9.83c0 .39.316.707.706.707H9.56c.39 0 .706-.316.706-.706v-5.97h3.468v5.97c0 .39.316.706.706.706h5.902c.39 0 .706-.316.706-.706v-9.831h1.72c.512 0 .963-.309 1.148-.786.185-.478.06-1.01-.32-1.355zm-3.255.73a.706.706 0 00-.706.705v9.831h-4.49v-5.97a.706.706 0 00-.706-.705H9.56a.706.706 0 00-.706.706v5.969h-4.49v-9.831a.706.706 0 00-.706-.706H1.699L12 1.824l3.508 3.196a.706.706 0 001.181-.522V3.214h3.469v5.732c0 .198.083.388.23.521l1.913 1.743h-1.959z" fill="#A3C359"/></svg>