<svg width="18" height="25" fill="none" xmlns="http://www.w3.org/2000/svg"><path d="M8.692.344C3.899.344 0 4.244 0 9.036c0 5.949 7.778 14.681 8.11 15.05a.783.783 0 001.164 0c.331-.369 8.11-9.101 8.11-15.05 0-4.793-3.9-8.692-8.692-8.692zm0 22.02c-2.618-3.11-7.127-9.245-7.127-13.328a7.135 7.135 0 017.127-7.127 7.135 7.135 0 017.127 7.127c0 4.083-4.509 10.217-7.127 13.328z" fill="#A3C359"/><path d="M8.692 4.663a4.378 4.378 0 00-4.373 4.372 4.378 4.378 0 004.373 4.373 4.378 4.378 0 004.373-4.373 4.378 4.378 0 00-4.373-4.372zm0 7.18a2.81 2.81 0 01-2.808-2.808 2.81 2.81 0 012.808-2.807A2.81 2.81 0 0111.5 9.035a2.81 2.81 0 01-2.808 2.808z" fill="#A3C359"/></svg>