<svg width="99" height="15" fill="none" xmlns="http://www.w3.org/2000/svg"><path d="M98.52.98a.5.5 0 00-.519-.48l-4.497.176a.5.5 0 00.04 1l3.997-.157.156 3.997a.5.5 0 001-.039L98.52.98zM1 1l-.34.367.002.001a1.765 1.765 0 01.047.043 16.232 16.232 0 00.654.54 29.4 29.4 0 002.108 1.497c1.893 1.235 4.782 2.873 8.783 4.51 8.002 3.272 20.444 6.531 38.257 6.531v-1c-17.688 0-30.001-3.235-37.879-6.457C8.692 5.42 5.86 3.812 4.017 2.61A28.42 28.42 0 011.98 1.164a15.245 15.245 0 01-.64-.532L1 1zm49.51 13.49c17.813 0 29.76-3.26 37.268-6.537 3.754-1.638 6.396-3.28 8.105-4.519a23.868 23.868 0 001.885-1.503 13.132 13.132 0 00.607-.578l.009-.01.002-.002h.001c0-.001 0-.002-.366-.341l-.367-.34-.005.006-.023.023a12.091 12.091 0 01-.524.496c-.385.344-.98.841-1.806 1.44-1.652 1.197-4.232 2.802-7.918 4.411-7.371 3.218-19.18 6.453-36.867 6.453v1z" fill="#A3C359"/></svg>