<svg width="20" height="25" fill="none" xmlns="http://www.w3.org/2000/svg"><path d="M19.282 5.17l-4.5-4.5a.75.75 0 00-.532-.217h-12A2.25 2.25 0 000 2.703v19.501a2.25 2.25 0 002.25 2.25h15a2.25 2.25 0 002.25-2.25V5.703a.75.75 0 00-.218-.533zM18 22.204a.75.75 0 01-.75.75h-15a.75.75 0 01-.75-.75V2.703a.75.75 0 01.75-.75H13.5v3a1.5 1.5 0 001.5 1.5h3v15.751z" fill="#A3C359"/><path d="M6 8.702a2.25 2.25 0 100 4.5 2.25 2.25 0 000-4.5zm0 3a.75.75 0 110-1.5.75.75 0 010 1.5zm0 4.5a2.25 2.25 0 100 4.5 2.25 2.25 0 000-4.5zm0 3a.75.75 0 110-1.5.75.75 0 010 1.5zm9.75-10.5h-6v1.5h6v-1.5zm-3 3h-3v1.5h3v-1.5zm3 4.5h-6v1.5h6v-1.5zm-3 3h-3V20.7h3v-1.5z" fill="#A3C359"/></svg>