<svg width="104" height="52" fill="none" xmlns="http://www.w3.org/2000/svg"><path fill-rule="evenodd" clip-rule="evenodd" d="M51.863.477c28.638 0 51.863 9.716 51.863 21.698 0 11.982-23.225 21.699-51.863 21.699C23.225 43.874 0 34.157 0 22.175 0 10.193 23.225.477 51.863.477zm13.757 15.68l5.251 5.645h6.853l-6.85-5.646h5.489l8.74 5.646h16.962c-.503-10.813-22.79-19.52-50.202-19.52-27.413 0-49.7 8.707-50.203 19.52h15.855l8.739-5.646h5.489l-6.85 5.646h6.852l5.251-5.646h5.136l-2.761 5.646h3.819l5.45-5.646h5.215l5.489 5.646h3.902l-2.762-5.646h5.136zm5.973 6.421l5.358 5.761H66.444l-2.819-5.761h-3.527l5.6 5.761h-9.74l-3.644-5.761h-7.256l-5.356 5.761h-2.823l5.562-5.761h-3.45l-2.818 5.761H25.666l5.358-5.761H23.95l-6.99 5.761H7.397l8.917-5.761H1.661c.542 10.8 22.814 19.491 50.202 19.491 27.388 0 49.659-8.692 50.201-19.491h-15.76l8.917 5.761h-9.567l-6.989-5.761h-7.072zm-19.77-.776l-2.447-3.867-3.596 3.867h6.043z" fill="#fff"/><path d="M7.218 37.44l-1.386.854-.127 1.645-.543-.324-.01-1.727 1.523-.771.543.323zm.962.574l-1.383.855-.13 1.644-.543-.324-.01-1.727 1.523-.772.543.324zm-.977 3.031l2.286-4.094.742.408-.9 1.611 1.453.8.9-1.611.741.407-2.286 4.094-.741-.407 1-1.79-1.453-.8-1 1.79-.742-.408zm5.827 1.585l.671.46c-.229.258-.48.42-.753.487-.273.068-.562.033-.868-.102-.483-.214-.762-.547-.836-1.002-.056-.362.011-.76.204-1.189.23-.513.531-.862.903-1.046.37-.185.74-.196 1.108-.033.414.183.671.48.774.89.102.41.007.926-.285 1.55l-1.842-.814c-.104.245-.13.46-.076.645a.578.578 0 00.333.39.461.461 0 00.337.024c.11-.036.22-.122.33-.26zm.413-.81c.101-.24.128-.444.079-.614a.525.525 0 00-.3-.354.536.536 0 00-.485.02c-.162.084-.294.238-.392.463l1.098.485zm1.268-.943l2.586.934-.25.681-.915-.33-.918 2.505-.756-.273.918-2.505-.915-.33.25-.682zm7.07 5.892l-.882-.267-.037-1.124-1.605-.487-.644.917-.86-.261 2.942-4.002.858.26.229 4.964zm-.947-2.223l-.041-1.83-1.054 1.497 1.095.333zm2.717-.828l2.616.647-.827 3.29-.778-.193.65-2.583-1.065-.263-.371 1.477c-.095.376-.2.63-.316.763-.115.132-.227.21-.334.234-.105.024-.263.011-.473-.04a2.97 2.97 0 01-.478-.178l.16-.641c.018.004.061.016.13.037.08.027.142.046.187.057.105.026.18.004.223-.069.045-.07.11-.284.199-.637l.477-1.901zm3.37.77l.782.18-.314 1.349c.133.013.236-.01.307-.07.07-.06.173-.205.306-.432.176-.303.335-.486.475-.55a.77.77 0 01.5-.03c.06.014.162.043.307.088l-.132.579c-.207-.047-.344-.056-.412-.026-.068.032-.162.154-.281.365-.162.284-.338.441-.524.472.228.135.382.422.46.863l.015.073.227 1.012-.843-.194-.169-1.044c-.035-.211-.076-.351-.121-.42-.046-.068-.127-.115-.242-.142l-.328 1.41-.782-.18.769-3.303zm2.218 2.138c.057-.292.178-.563.36-.812.183-.248.407-.422.672-.52.265-.099.545-.12.837-.064.451.087.79.322 1.014.705.225.383.288.824.19 1.324-.098.502-.326.892-.681 1.167-.357.276-.756.37-1.198.284a1.612 1.612 0 01-.743-.357 1.37 1.37 0 01-.448-.716c-.077-.291-.078-.628-.003-1.011zm.8.203c-.064.33-.044.597.063.8a.652.652 0 00.468.363.65.65 0 00.57-.163c.175-.149.295-.39.36-.725.064-.325.043-.59-.063-.792a.656.656 0 00-1.038-.2c-.175.148-.295.388-.36.717zm2.96-1.12l2.034.283-.102.718-1.236-.172-.374 2.64-.797-.112.475-3.358zm1.952 1.928a2.03 2.03 0 01.302-.835c.165-.26.377-.45.635-.565.257-.117.534-.158.83-.122.456.056.81.267 1.061.634.251.366.345.801.283 1.307-.063.508-.263.912-.598 1.211-.337.3-.728.421-1.175.367a1.616 1.616 0 01-.766-.306c-.234-.17-.4-.398-.498-.683-.096-.285-.122-.62-.074-1.008zm.813.147c-.041.334-.002.599.119.793a.653.653 0 001.05.128c.163-.16.266-.409.308-.747.04-.33 0-.592-.119-.787a.656.656 0 00-1.05-.128c-.164.16-.267.408-.308.741zm3.169-1.358l2.68.28-.357 3.371-.797-.083.28-2.648-1.09-.113-.16 1.514c-.042.386-.11.651-.206.799-.096.147-.196.24-.298.278-.102.039-.26.047-.474.025a2.996 2.996 0 01-.499-.11l.07-.657c.017.002.062.008.133.02a2.7 2.7 0 00.193.03c.108.01.179-.021.211-.099.034-.077.07-.296.108-.658l.206-1.95zm3.373.29l.77.066-.187 2.122 1.42-2.015.787.069-.298 3.377-.77-.066.19-2.16-1.44 2.051-.77-.067.298-3.377zm4.197 2.322l.02-.584c.139.005.24-.003.304-.02a.373.373 0 00.184-.141.44.44 0 00.094-.264.477.477 0 00-.094-.299c-.067-.093-.17-.141-.308-.146a.542.542 0 00-.29.066c-.085.049-.166.167-.24.356l-.677-.185c.08-.296.234-.515.464-.656.231-.14.49-.207.779-.197.366.013.646.116.84.31a.924.924 0 01.278.717.708.708 0 01-.145.433 1.213 1.213 0 01-.422.31c.222.076.386.185.494.328a.798.798 0 01.149.523c-.01.263-.128.486-.356.669-.228.183-.55.267-.966.252-.726-.025-1.158-.356-1.298-.994l.74-.124c.107.336.298.51.57.519a.495.495 0 00.367-.12.42.42 0 00.147-.307.376.376 0 00-.13-.316.574.574 0 00-.368-.126l-.136-.005zm1.984-1.97l.997.018.714 2.375.803-2.349.993.017-.06 3.39-.683-.012.039-2.231-.781 2.219-.687-.012-.669-2.244-.039 2.231-.687-.011.06-3.39zm3.678.058l.856-.03.812 2.381.625-2.43.833-.029-.958 3.298-.172.597c-.063.2-.126.354-.185.46a.957.957 0 01-.212.262.925.925 0 01-.3.162 1.44 1.44 0 01-.41.068 1.936 1.936 0 01-.457-.038l-.096-.7c.127.024.24.033.342.03.187-.007.323-.073.409-.198.084-.125.148-.283.19-.475l-1.277-3.358zm5.193-.147l.772-.04.112 2.126 1.124-2.19.788-.042.18 3.386-.773.04-.114-2.165-1.139 2.23-.772.04-.178-3.385zm5.44 3.1l-.493-4.655.844-.088.194 1.832 1.651-.172-.194-1.832.843-.088.493 4.655-.843.088-.215-2.036-1.652.173.215 2.035-.843.088zm4.49-2.887l-.743-.045c.035-.336.14-.595.317-.78.178-.183.46-.303.852-.357.356-.05.627-.04.814.03.187.07.327.172.418.306.091.135.164.395.22.78l.137 1.04c.042.294.085.51.131.647.045.135.115.28.207.43l-.789.11a3.893 3.893 0 01-.113-.252 1.427 1.427 0 00-.043-.1 1.462 1.462 0 01-.39.393 1.154 1.154 0 01-.48.18c-.31.042-.569-.017-.773-.18a1.002 1.002 0 01-.37-.674 1.05 1.05 0 01.05-.524c.061-.16.16-.29.294-.389.135-.1.338-.198.605-.296.36-.13.609-.239.743-.326l-.013-.088c-.024-.172-.079-.287-.165-.35-.085-.062-.233-.079-.443-.05a.527.527 0 00-.319.14c-.07.073-.119.191-.146.355zm1.169.572a4.66 4.66 0 01-.466.204c-.213.083-.35.155-.412.214a.388.388 0 00-.111.335.465.465 0 00.17.305c.096.08.208.11.337.092a.654.654 0 00.389-.215.557.557 0 00.148-.32c.01-.08 0-.225-.03-.438l-.025-.177zm1.212-1.9l.741-.117.078.492c.07-.184.178-.342.325-.472a1 1 0 01.521-.244c.349-.055.67.052.96.318.293.266.482.672.569 1.217.09.559.036 1.013-.159 1.361-.196.349-.468.55-.817.605a.945.945 0 01-.47-.038 1.615 1.615 0 01-.485-.312l.269 1.688-.795.124-.737-4.623zm1.044 1.494c.06.375.172.644.334.801.162.159.34.224.533.193a.56.56 0 00.42-.32c.097-.184.116-.465.056-.84-.056-.352-.162-.603-.315-.753-.154-.15-.324-.21-.51-.181a.59.59 0 00-.444.327c-.102.187-.126.444-.073.773zm2.291-2.07l.785-.165.29 1.355c.127-.044.21-.108.249-.193.038-.084.07-.257.094-.519.03-.348.096-.58.196-.697a.766.766 0 01.441-.237c.06-.013.165-.03.314-.05l.128.58c-.208.044-.336.094-.384.15-.049.058-.082.207-.1.448-.026.326-.118.542-.274.649.264.025.526.22.785.588a.72.72 0 00.045.06l.635.822-.846.178-.597-.875c-.122-.177-.219-.287-.289-.33-.07-.042-.164-.052-.28-.027l.303 1.415-.785.165-.71-3.316zm2.963 1.123a2.017 2.017 0 01-.004-.888c.066-.3.2-.55.402-.746.201-.197.448-.33.738-.396a1.444 1.444 0 011.216.235c.362.26.6.636.715 1.132.116.5.068.947-.144 1.342a1.423 1.423 0 01-.978.743 1.619 1.619 0 01-.825-.027 1.383 1.383 0 01-.703-.473c-.189-.235-.329-.542-.417-.922zm.815-.138c.076.328.204.563.384.705a.656.656 0 001.031-.236c.099-.206.11-.475.032-.807-.075-.323-.203-.556-.382-.699a.653.653 0 00-1.03.236c-.1.207-.111.474-.035.801zm2.283-2.21l.959-.274 1.382 2.065.076-2.48.956-.272.941 3.26-.657.187-.62-2.146-.094 2.349-.66.188-1.3-1.952.62 2.145-.661.188-.942-3.259zm4.853-.29l-.738.097c-.03-.337.023-.611.161-.825.139-.214.394-.385.767-.513.34-.116.608-.157.806-.124a.842.842 0 01.469.221c.115.115.237.356.365.725l.335.993c.097.282.182.486.253.611.07.125.166.253.286.383l-.754.257a3.933 3.933 0 01-.16-.225 1.36 1.36 0 00-.06-.09 1.452 1.452 0 01-.308.459c-.123.12-.269.21-.437.267-.296.101-.56.091-.793-.029a1.006 1.006 0 01-.492-.592 1.052 1.052 0 01-.051-.524.837.837 0 01.213-.438c.113-.122.293-.257.537-.404.329-.196.551-.35.666-.46l-.03-.085c-.056-.164-.132-.267-.228-.313-.097-.044-.245-.033-.445.036a.526.526 0 00-.286.198c-.056.084-.08.21-.076.375zm1.257.34c-.085.07-.224.166-.418.289-.194.122-.314.219-.363.288a.388.388 0 00-.046.35c.042.12.117.208.227.267.11.06.225.069.348.027a.652.652 0 00.34-.285.556.556 0 00.084-.343 1.934 1.934 0 00-.114-.424l-.058-.168zm.774-2.132l.752-.286.448 1.159 1.075-.41-.448-1.159.754-.287 1.224 3.165-.754.288-.515-1.33-1.074.41.514 1.33-.752.286-1.224-3.166zm3.146-1.132l.707-.312.872 1.945.258-2.445.722-.319 1.39 3.098-.707.312-.889-1.98-.257 2.486-.706.312-1.39-3.097zm3.086-1.36l.682-.36 1.007 1.88.086-2.457.697-.368 1.604 2.994-.683.36-1.025-1.914-.082 2.498-.683.36-1.603-2.993zm5.55.625l-.11-1.618-1.402-.88.542-.324 1.54.8-.027 1.699-.543.323zm-.961.574l-.111-1.617-1.402-.882.542-.324 1.54.8-.027 1.7-.542.323z" fill="#fff"/></svg>