<svg width="27" height="24" fill="none" xmlns="http://www.w3.org/2000/svg"><path d="M25.997 11.663L14.847.705a2.485 2.485 0 00-3.467 0L.23 11.663a.768.768 0 101.077 1.096l.868-.852v8.749C2.175 22.5 3.675 24 5.519 24h15.19c1.843 0 3.343-1.5 3.343-3.344v-8.75l.868.853a.766.766 0 001.087-.009.768.768 0 00-.01-1.087zm-3.481 8.993a1.81 1.81 0 01-1.808 1.807H5.52a1.81 1.81 0 01-1.808-1.807v-10.26l8.746-8.595a.944.944 0 011.313 0l8.746 8.595v10.26z" fill="#A3C359"/><path d="M10.805 8.975v2.473H8.332a.768.768 0 00-.768.768v3.067a.77.77 0 00.768.769h2.473v2.472c0 .424.344.768.768.768h3.067a.768.768 0 00.768-.768v-2.473h2.473a.768.768 0 00.768-.768v-3.066a.768.768 0 00-.768-.769h-2.473V8.975a.768.768 0 00-.768-.768h-3.067a.768.768 0 00-.768.768zm1.537 3.242V9.744h1.53v2.473c0 .424.344.768.768.768h2.472v1.53H14.64a.768.768 0 00-.769.768v2.473h-1.53v-2.473a.768.768 0 00-.768-.768H9.1v-1.53h2.473a.768.768 0 00.769-.768z" fill="#A3C359"/></svg>