<svg width="24" height="29" fill="none" xmlns="http://www.w3.org/2000/svg"><path d="M19.325 21.378A4.68 4.68 0 0024 16.704c0-1.06-.365-2.1-1.028-2.925a4.707 4.707 0 00-1.698-1.324 6.23 6.23 0 00-4.329-7.825 4.964 4.964 0 00-1.432-2.833A4.965 4.965 0 0012 .353a4.965 4.965 0 00-3.513 1.444A4.964 4.964 0 007.055 4.63a6.23 6.23 0 00-4.329 7.825 4.706 4.706 0 00-1.698 1.325A4.685 4.685 0 000 16.703a4.68 4.68 0 004.675 4.675h6.508v5.251H4.44v1.635h15.12V26.63h-6.742v-5.25h6.508zm-14.65-1.634a3.043 3.043 0 01-3.04-3.04c0-1.419.963-2.636 2.342-2.96l.984-.23-.43-.913a4.596 4.596 0 013.422-6.494l.678-.11.008-.688A3.374 3.374 0 0112 1.987c1.832 0 3.34 1.49 3.361 3.322l.008.688.68.11a4.6 4.6 0 013.42 6.494l-.43.913.983.23a3.026 3.026 0 012.343 2.96 3.043 3.043 0 01-3.04 3.04h-6.508v-4.547l2.994-2.994-1.156-1.155-1.838 1.837V7.468h-1.634v2.469L9.345 8.099 8.189 9.255l2.993 2.994v3.585l-1.837-1.838-1.156 1.156 2.993 2.993v1.598H4.675z" fill="#A3C359"/></svg>